<svg width="512" height="512" viewBox="0 0 512 512" fill="none" xmlns="http://www.w3.org/2000/svg">
<path d="M307.652 22.1993C310.155 24.4157 312.585 26.6888 315 29.0001C315.638 29.575 316.276 30.1499 316.934 30.7422C322.029 35.4859 325.534 40.9948 329 47.0001C329.539 47.9282 330.078 48.8563 330.633 49.8126C336.488 60.6398 339.409 72.7173 340 85.0001C340.51 84.4548 341.021 83.9095 341.547 83.3477C347.534 77.1373 353.93 71.9339 361 67.0001C361.812 66.4316 362.624 65.8631 363.461 65.2774C377.277 56.304 392.458 53.6595 408.559 56.6641C418.633 59.616 426.699 65.9279 432 75.0001C435.667 82.4178 436.402 90.8218 434.238 98.8126C431.076 107.212 426.79 111.748 419 116C416.2 117.179 413.358 118.048 410.438 118.875C409.184 119.243 409.184 119.243 407.905 119.619C399.787 121.927 391.553 123.698 383.312 125.5C356.3 130.786 356.3 130.786 336 148C330.322 157.746 331.606 169.129 332 180C333.163 179.541 334.325 179.082 335.523 178.609C355.567 170.853 378.014 163.978 399.18 171.746C413.145 177.955 423.011 187.789 428.833 202.038C433.223 213.546 437.426 226.57 437 239C437.804 238.773 438.609 238.546 439.438 238.313C445.096 237.816 449.936 239.413 454.438 242.875C457.081 246.47 458 248.868 458 253.375C456.195 259.919 452.138 263.496 446.5 267.063C429.808 276.416 404.176 287.016 384.711 282.465C380.7 281.13 377.963 279.81 376 276C374.143 269.807 374.905 263.491 375.766 257.176C376.359 251.669 376.907 246.177 374.75 241C371.153 236.89 367.456 234.758 362 234C350.13 233.654 341.884 238.531 333.43 246.484C330.16 249.869 327.264 253.495 324.332 257.172C306.471 278.833 281.276 291.654 253.543 294.723C226.559 296.835 204.113 289.709 181.438 275.563C177.321 273.034 173.78 271.755 169 271C168.01 271.33 167.02 271.66 166 272C163.252 282.118 170.951 293.459 175.293 302.41C178.674 309.521 179.478 317.117 177.164 324.762C171.082 337.762 159.831 346.248 147 352C141.467 353.69 135.327 354.018 130 351.688C128 350 128 350 126 347C126.057 343.301 126.326 339.645 126.613 335.957C126.338 330.581 122.672 327.576 119 324C118.321 323.325 117.642 322.65 116.943 321.954C115.533 320.566 114.117 319.185 112.694 317.811C99.0002 304.556 90.1334 291.386 89.6875 271.625C89.8591 255.342 95.498 239.886 106.852 227.988C124.244 211.893 144.403 209.369 167 210C167.116 209.324 167.232 208.648 167.351 207.952C167.878 204.885 168.408 201.817 168.938 198.75C169.12 197.687 169.302 196.623 169.49 195.527C169.756 193.99 169.756 193.99 170.027 192.422C170.271 191.008 170.271 191.008 170.519 189.565C170.935 187.347 171.452 185.188 172 183C172.843 175.624 172.577 170.178 167.945 164.211C167.303 163.481 166.661 162.752 166 162C164.944 160.782 164.944 160.782 163.867 159.539C145.94 140.31 122.444 134.111 97.0496 132.214C82.725 131.036 70.2613 127.81 60.125 117.188C55.9693 112.135 54.3938 107.038 53.5625 100.625C54.6404 91.6943 57.9551 83.7801 65 78.0001C80.2629 68.3343 96.1727 68.717 113.322 72.3531C118.44 73.5895 123.437 75.172 128.438 76.8126C129.419 77.1316 130.401 77.4506 131.413 77.7794C140.641 80.9351 149.027 85.3973 157 91.0001C157.13 89.2037 157.13 89.2037 157.262 87.3711C159.21 63.6353 167.988 43.1561 186.066 27.211C219.276 -0.435949 273.147 -6.41146 307.652 22.1993ZM193 33.0001C192.282 33.5647 191.564 34.1293 190.824 34.711C176.678 46.4127 167.13 63.7755 165 82.0001C163.54 97.9079 169.236 113.881 178.824 126.395C183.355 131.82 188.075 136.849 194 140.75C197 143 197 143 197.938 145.813C197.958 146.534 197.979 147.256 198 148C192.509 148.632 189.769 146.072 185.593 142.821C174.61 134.056 167.399 122.82 162.625 109.688C157.877 97.9261 146.135 91.8366 135 87.0001C118.027 80.1851 97.0341 73.7556 78.9375 79.5626C71.7322 82.6834 65.8014 87.5213 62.625 94.8243C61.0421 100.335 61.0965 105.158 63.625 110.313C73.9906 122.042 86.9488 123.148 101.844 124.419C101.857 124.42 101.87 124.421 101.883 124.422C124.327 126.37 143.483 132.489 161 147C161.651 147.489 162.302 147.977 162.973 148.481C170.755 154.525 177.438 163.488 179.738 173.078C180.092 178.376 179.201 183.231 178.248 188.419C178.228 188.529 178.208 188.64 178.188 188.75C178.009 189.771 177.83 190.792 177.646 191.844C177.11 194.898 176.557 197.949 176 201C175.807 202.062 175.615 203.123 175.417 204.217C174.946 206.811 174.474 209.406 174 212C174.904 212.266 175.807 212.531 176.738 212.805C177.918 213.158 179.097 213.511 180.312 213.875C181.484 214.223 182.656 214.571 183.863 214.93C187 216 187 216 190 218C190.188 220.625 190.188 220.625 190 223C188.763 222.732 187.525 222.464 186.25 222.188C185.413 222.008 184.577 221.829 183.715 221.645C181 221 181 221 178.504 220.199C160.887 214.804 141.41 217.042 125.125 225.25C111.179 233.317 102.573 244.954 98.3164 260.496C95.6304 272.37 96.5164 284.209 102.5 295C106.499 301.182 111.592 306.429 116.699 311.69C116.799 311.793 116.9 311.897 117 312C117.871 312.911 118.743 313.823 119.641 314.762C122.735 317.971 122.735 317.971 126 321C126.66 321 127.32 321 128 321C128.268 321.557 128.536 322.114 128.812 322.688C129.949 325.044 129.949 325.044 131.562 327.156C133.384 330.761 133.334 333.879 133.188 337.813C133.167 338.852 133.167 338.852 133.146 339.912C133.111 341.608 133.058 343.304 133 345C144.396 345.334 152.424 340.172 161 333C166.447 327.824 170.61 321.903 171.367 314.328C171.254 309.169 169.087 305.191 166.75 300.688C165.92 299.005 165.093 297.322 164.27 295.637C163.875 294.835 163.48 294.034 163.073 293.209C159.242 285.323 156.536 277.873 158 269C160.098 265.383 161.049 264.317 165 263C175.709 261.633 185.205 268.611 193.848 274.078C216.024 287.598 242.085 289.667 267 284C280.826 280.25 293.005 274.233 304 265C304.69 264.433 305.379 263.866 306.09 263.281C310.083 259.909 313.571 256.338 316.965 252.371C337.794 228.104 337.794 228.104 353.688 226.125C361.33 225.655 368.773 226.741 375.125 231.188C375.744 231.786 376.363 232.384 377 233C377.66 233 378.32 233 379 233C379.667 234.667 380.333 236.333 381 238C381.524 239.106 381.524 239.106 382.058 240.235C383.217 243.638 383.226 246.458 383.195 250.051C383.191 251.039 383.191 251.039 383.187 252.047C383.176 254.136 383.151 256.224 383.125 258.313C383.115 259.735 383.106 261.158 383.098 262.58C383.076 266.054 383.041 269.527 383 273C389.819 276.867 397.74 274.975 405.062 273.375C406.295 273.108 406.295 273.108 407.552 272.835C418.762 270.278 429.077 266.203 439.25 260.875C440.181 260.388 440.181 260.388 441.13 259.892C444.605 257.993 447.469 256.065 450 253C450.335 250.332 450.335 250.332 450 248C444.589 244.393 438.007 245.973 432 247C431.875 246.261 431.749 245.521 431.62 244.76C426.608 210.851 426.608 210.851 406.648 184.281C393.132 175.745 379.51 174.691 364 178C340.991 183.509 314.145 192.985 301.156 214.055C300.775 214.697 300.393 215.339 300 216C299.34 216.99 298.68 217.98 298 219C296.68 218.67 295.36 218.34 294 218C292.975 211.505 296.348 207.044 300 202C306.755 193.803 315.554 188.612 325 184C324.857 182.204 324.857 182.204 324.711 180.371C323.566 164.414 323.138 148.754 333.902 135.691C346.451 123.329 366.371 120.888 382.75 116.938C387.665 115.752 392.576 114.551 397.484 113.34C398.592 113.078 399.699 112.817 400.841 112.547C411.499 109.915 420.19 106.829 426.102 97.2071C428.26 91.9039 427.82 85.04 426.348 79.5821C423.291 72.7992 417.989 68.6777 411.312 65.6876C398.607 61.0795 387.057 63.2373 375.012 68.5274C366.82 72.5329 359.988 77.5892 353.348 83.8086C351.205 85.8089 349.001 87.6871 346.75 89.5626C339.871 95.6663 336.652 101.479 333.955 110.218C330.456 121.256 324.108 129.85 316 138C315.114 138.938 315.114 138.938 314.211 139.895C309.991 144.012 305.203 146.701 300 149.375C299.335 149.721 298.671 150.068 297.986 150.424C293.286 152.73 289.219 153.592 284 154C284 152.02 284 150.04 284 148C285.051 147.576 286.101 147.152 287.184 146.715C295.309 143.355 302.483 140.049 309 134C309.757 133.322 310.513 132.644 311.293 131.945C324.631 119.389 331.737 102.588 332.375 84.3751C332.045 66.4709 324.956 50.2565 313 37.0001C312.408 36.3156 311.817 35.6311 311.207 34.9258C297.297 19.8289 276.715 12.1137 256.562 11.0748C233.167 10.3214 211.232 18.4496 193 33.0001Z" fill="black"/>
<path d="M193 33.0001L190.824 34.711C176.678 46.4127 167.13 63.7755 165 82.0001C163.54 97.9079 169.236 113.881 178.824 126.395C183.355 131.82 188.075 136.849 194 140.75C197 143 197 143 197.938 145.813L198 148C192.509 148.632 189.769 146.072 185.593 142.821C174.61 134.056 167.399 122.82 162.625 109.688C157.877 97.9261 146.135 91.8366 135 87.0001C118.027 80.1851 97.0341 73.7556 78.9375 79.5626C71.7322 82.6834 65.8014 87.5213 62.625 94.8243C61.0421 100.335 61.0965 105.158 63.625 110.313C73.9906 122.042 86.9488 123.148 101.844 124.419L101.883 124.422C124.327 126.37 143.483 132.489 161 147L162.973 148.481C170.755 154.525 177.438 163.488 179.738 173.078C180.092 178.376 179.201 183.231 178.248 188.419L178.188 188.75L177.646 191.844C177.11 194.898 176.557 197.949 176 201L175.417 204.217C174.946 206.811 174.474 209.406 174 212L176.738 212.805L180.312 213.875L183.863 214.93C187 216 187 216 190 218C190.188 220.625 190.188 220.625 190 223L186.25 222.188L183.715 221.645C181 221 181 221 178.504 220.199C160.887 214.804 141.41 217.042 125.125 225.25C111.179 233.317 102.573 244.954 98.3164 260.496C95.6304 272.37 96.5164 284.209 102.5 295C106.499 301.182 111.592 306.429 116.699 311.69L117 312L119.641 314.762C122.735 317.971 122.735 317.971 126 321H128L128.812 322.688C129.949 325.044 129.949 325.044 131.562 327.156C133.384 330.761 133.334 333.879 133.188 337.813L133.146 339.912C133.111 341.608 133.058 343.304 133 345C144.396 345.334 152.424 340.172 161 333C166.447 327.824 170.61 321.903 171.367 314.328C171.254 309.169 169.087 305.191 166.75 300.688C165.92 299.005 165.093 297.322 164.27 295.637L163.073 293.209C159.242 285.323 156.536 277.873 158 269C160.098 265.383 161.049 264.317 165 263C175.709 261.633 185.205 268.611 193.848 274.078C216.024 287.598 242.085 289.667 267 284C280.826 280.25 293.005 274.233 304 265L306.09 263.281C310.083 259.909 313.571 256.338 316.965 252.371C337.794 228.104 337.794 228.104 353.688 226.125C361.33 225.655 368.773 226.741 375.125 231.188L377 233H379L381 238L382.058 240.235C383.217 243.638 383.226 246.458 383.195 250.051L383.187 252.047C383.176 254.136 383.151 256.224 383.125 258.313C383.115 259.735 383.106 261.158 383.098 262.58C383.076 266.054 383.041 269.527 383 273C389.819 276.867 397.74 274.975 405.062 273.375L407.552 272.835C418.762 270.278 429.077 266.203 439.25 260.875L441.13 259.892C444.605 257.993 447.469 256.065 450 253C450.335 250.332 450.335 250.332 450 248C444.589 244.393 438.007 245.973 432 247L431.62 244.76C426.608 210.851 426.608 210.851 406.648 184.281C393.132 175.745 379.51 174.691 364 178C340.991 183.509 314.145 192.985 301.156 214.055L300 216L298 219L294 218C292.975 211.505 296.348 207.044 300 202C306.755 193.803 315.554 188.612 325 184L324.711 180.371C323.566 164.414 323.138 148.754 333.902 135.691C346.451 123.329 366.371 120.888 382.75 116.938C387.665 115.752 392.576 114.551 397.484 113.34L400.841 112.547C411.499 109.915 420.19 106.829 426.102 97.2071C428.26 91.9039 427.82 85.04 426.348 79.5821C423.291 72.7992 417.989 68.6777 411.312 65.6876C398.607 61.0795 387.057 63.2373 375.012 68.5274C366.82 72.5329 359.988 77.5892 353.348 83.8086C351.205 85.8089 349.001 87.6871 346.75 89.5626C339.871 95.6663 336.652 101.479 333.955 110.218C330.456 121.256 324.108 129.85 316 138L314.211 139.895C309.991 144.012 305.203 146.701 300 149.375L297.986 150.424C293.286 152.73 289.219 153.592 284 154V148L287.184 146.715C295.309 143.355 302.483 140.049 309 134L311.293 131.945C324.631 119.389 331.737 102.588 332.375 84.3751C332.045 66.4709 324.956 50.2565 313 37.0001L311.207 34.9258C297.297 19.8289 276.715 12.1137 256.562 11.0748C233.167 10.3214 211.232 18.4496 193 33.0001Z" fill="#FEE129"/>
<path d="M386 314C389.618 316.218 392.737 318.832 394 323C394.125 326.25 394.125 326.25 394 329C395.547 329.031 395.547 329.031 397.125 329.062C406.842 330.29 417.668 336.668 424 344C426.553 347.547 428.791 351.232 431 355C431.572 355.92 432.145 356.841 432.734 357.789C438.911 367.759 439.75 378.851 437.281 390.348C435.299 396.029 432.462 401.095 429 406C428.443 406.846 427.886 407.691 427.312 408.562C413.849 422.753 391.939 428.514 373 430C368.722 430.069 364.45 429.975 360.172 429.887C357.655 429.855 355.138 429.824 352.621 429.795C348.686 429.746 344.753 429.688 340.819 429.602C336.999 429.523 333.18 429.483 329.359 429.449C328.2 429.415 327.04 429.381 325.845 429.346C308.627 429.289 294.785 441.498 283 453C280.573 455.593 278.28 458.278 276 461C274.691 462.503 273.378 464.003 272.063 465.5C271.476 466.17 270.889 466.841 270.285 467.531C269.861 468.016 269.437 468.501 269 469C270.93 473.659 272.881 477.943 275.813 482.062C277.897 485.358 278.737 487.939 277.891 491.922C274.798 499.137 268.613 504.018 261.586 507.121C255.904 509.052 251.2 510.079 245.688 507.375C243.014 505.013 240.522 502.522 238 500C236.223 498.609 236.223 498.609 234 498C231.402 498.76 231.402 498.76 228.688 500.187C211.916 507.637 193.207 508.327 176 502C162.996 496.224 155.215 487.123 150 474C146.055 460.855 147.929 447.427 154.125 435.25C157.692 429.078 161.946 424.001 167 419C167.59 418.376 168.181 417.752 168.789 417.109C185.578 400.69 210.754 398.524 232.885 398.607C248.412 398.792 263.72 401.422 279 404C279.296 403.077 279.593 402.153 279.898 401.202C289.239 374.058 314.431 352.206 339 339C340.761 338.308 342.531 337.637 344.313 337C346.408 336.213 346.408 336.213 348 335C348.838 332.923 349.078 331.005 349.359 328.785C350.23 324.999 351.913 321.929 353.813 318.562C354.145 317.947 354.477 317.332 354.819 316.698C356.404 313.95 357.664 312.191 360.445 310.613C369.374 308.47 377.742 310.275 386 314ZM362 321C362 321.33 362 321.66 362 322C363.085 322.182 364.171 322.363 365.289 322.551C366.734 322.804 368.18 323.058 369.625 323.312C370.338 323.43 371.051 323.548 371.785 323.67C376.327 324.482 379.896 325.8 384 328C384.66 328 385.32 328 386 328C386.33 326.68 386.66 325.36 387 324C385.587 323.182 384.169 322.37 382.75 321.562C381.961 321.11 381.172 320.658 380.359 320.191C374.16 317.061 367.71 316.674 362 321ZM356 333C356.99 334.485 356.99 334.485 358 336C358.495 335.67 358.99 335.34 359.5 335C363.256 333.498 365.95 333.614 370 334C372.575 336.325 373.397 338.624 374 342C376.832 342.334 376.832 342.334 380 342C382.377 340.125 382.377 340.125 384 338C379.686 332.496 374.76 331.191 368 330C361.201 329.148 361.201 329.148 356 333ZM391 336C390.629 337.856 390.629 337.856 390.25 339.75C389.309 343.522 388.174 345.596 385 348C382 349 382 349 379.477 348.965C376.386 348.935 373.954 349.06 371 350C368.545 353.067 367.22 356.286 366 360C366.743 360.722 367.485 361.444 368.25 362.187C374.923 369.013 374.923 369.013 375.242 373.121C374.965 377.56 374.062 381.438 372.813 385.687C372.518 386.806 372.518 386.806 372.217 387.947C370.825 392.747 369.416 395.276 365 398C354.853 401.903 345.872 399.91 336 396C331.007 393.403 327.608 390.015 325 385C323.76 379.566 324.297 375.544 326.125 370.375C326.326 369.733 326.527 369.091 326.734 368.43C328.284 363.875 330.329 361.076 334 358C337.457 356.848 340.774 356.659 344.364 356.456C344.471 356.45 344.579 356.444 344.688 356.437C345.389 356.394 346.091 356.351 346.814 356.307C348.543 356.201 350.271 356.1 352 356C352.727 354.425 353.431 352.84 354.125 351.25C354.717 349.927 354.717 349.927 355.32 348.578C356.263 346.014 356.263 346.014 355.117 343.672C354.749 343.12 354.38 342.568 354 342C340.975 346.383 329.329 354.044 319 363C318.193 363.674 317.386 364.348 316.555 365.043C303.976 375.867 294.024 388.946 287 404C287 404.66 287 405.32 287 406C291.166 406.486 295.333 406.962 299.5 407.437C301.231 407.64 301.231 407.64 302.996 407.846C317.437 409.481 331.791 410.21 346.313 410.187C347.386 410.187 347.386 410.187 348.481 410.186C371.896 410.132 397.995 409.294 416.027 392.211C422.597 384.847 426.562 376.574 426.309 366.648C425.211 357.225 420.107 350.243 412.969 344.312C406.739 339.798 398.807 336 391 336ZM336.625 366.5C336.089 367.325 335.553 368.15 335 369C337.805 370.403 340.307 370.192 343.438 370.312C351.379 370.819 358.339 372.559 365 377C365.99 377 366.98 377 368 377C368.33 375.35 368.66 373.7 369 372C367.631 371.033 366.255 370.077 364.875 369.125C364.109 368.591 363.344 368.058 362.555 367.508C355.914 363.589 342.746 360.273 336.625 366.5ZM331 380C332.735 385.677 335.957 387.851 341 390.687C346.515 393.1 352.025 393.607 358 393C361.184 391.645 362.54 390.767 364.313 387.812C364.539 387.214 364.766 386.616 365 386C357.903 379.376 349.414 377.397 339.941 376.883C336.123 377.035 334.079 377.801 331 380ZM426 392C427 394 427 394 427 394L426 392ZM425 394C424.304 394.835 424.304 394.835 423.594 395.687C409.162 411.627 387.536 415.487 367 417C361.292 417.274 355.584 417.29 349.871 417.261C347.397 417.25 344.923 417.261 342.449 417.273C320.756 417.298 299.534 414.632 278.112 411.428C223.777 403.138 223.777 403.138 174 423C167.341 428.416 162.548 435.182 159 443C159.33 443.66 159.66 444.32 160 445C160.522 444.299 161.044 443.597 161.582 442.875C174.947 425.648 193.972 416.977 215.292 414.018C240.224 410.994 265.957 413.018 290.563 417.5C310.072 421.02 329.227 422.181 349.027 422.349C350.891 422.366 352.755 422.389 354.619 422.417C375.97 422.711 401.322 419.779 418 405C420.814 402.112 423.459 399.13 426 396C425.67 395.34 425.34 394.68 425 394ZM171 443C164.754 450.282 160.656 458.539 159 468C158.863 468.767 158.727 469.534 158.586 470.324C158.215 474.479 158.417 477.083 160.691 480.66C169.082 490.335 179.159 496.934 192.149 498.211C205.936 499.041 220.556 497.455 232 489C234.284 485.464 235.305 482.124 234.703 477.93C233.918 475.776 232.953 474.46 231.438 472.75C230.633 471.842 229.829 470.935 229 470C227.144 470.495 227.144 470.495 225.25 471C211.493 473.925 211.493 473.925 205.668 470.715C203.554 468.94 201.787 467.102 200 465C199.411 464.34 198.822 463.68 198.215 463C194.768 458.828 192.902 455.577 193 450C194.398 442.047 198.66 436.301 205.023 431.461C212.597 426.499 219.951 424.867 229 426C234.018 428.104 236.373 431.849 239.25 436.25C239.696 436.893 240.142 437.536 240.602 438.199C243.402 442.416 244.87 445.809 245 451C244.223 453.328 244.223 453.328 243.063 455.25C241.478 457.936 241 458.772 241 462C242.306 463.887 242.306 463.887 244 465.687C244.557 466.31 245.114 466.933 245.688 467.574C246.121 468.045 246.554 468.515 247 469C247.846 468.691 248.691 468.381 249.563 468.062C253 467 253 467 256.34 466.812C261.129 465.749 262.883 463.656 265.927 460.024C265.951 459.995 265.976 459.966 266 459.937C266.783 459.048 266.783 459.048 267.582 458.141C269.073 456.442 270.541 454.726 272 453C280.511 442.965 289.586 434.667 301 428C297.498 425.949 294.159 425.377 290.172 424.746C289.172 424.587 289.172 424.587 288.152 424.426C286.737 424.203 285.321 423.984 283.905 423.768C281.797 423.445 279.692 423.107 277.586 422.768C241.708 417.119 198.87 415.799 171 443ZM204.875 442.125C202.068 445.602 200 448.444 200 453C205.154 454.829 209.237 453.147 214 451C220.254 447.599 226.181 444.137 230 438C230.186 435.74 230.186 435.74 229 434C220.908 428.605 210.54 435.769 204.875 442.125ZM235 443C234.505 443.866 234.01 444.732 233.5 445.625C227.584 454.457 217.014 458.854 207 461C208.018 463.139 208.018 463.139 210 465C217.403 466.184 223.716 462.649 229.75 458.687C233.391 455.931 235.703 452.949 238 449C237.644 446.027 237.162 445.162 235 443ZM253 475C253.062 476.258 253.124 477.516 253.188 478.812C253.167 482.703 253.167 482.703 251.875 485C249.182 486.436 247.012 486.184 244 486C242.68 486 241.36 486 240 486C239.67 487.32 239.34 488.64 239 490C242.703 491.433 244.938 490.832 248.438 489.312C254.976 486.135 259.572 482.73 264 477C262.688 475.646 261.354 474.313 260 473C257.647 473 255.206 474.249 253 475ZM268 485C267.299 485.722 266.598 486.444 265.875 487.187C260.566 492.557 255.144 495.619 248 498C248.33 498.66 248.66 499.32 249 500C256.5 499.762 261.274 497.91 267 493C268.786 491.035 268.786 491.035 270 489C269.783 486.792 269.783 486.792 269 485C268.67 485 268.34 485 268 485Z" fill="black"/>
<path d="M171 443C164.754 450.282 160.656 458.539 159 468L158.586 470.324C158.215 474.479 158.417 477.083 160.691 480.66C169.082 490.335 179.159 496.934 192.149 498.211C205.936 499.041 220.556 497.455 232 489C234.284 485.464 235.305 482.124 234.703 477.93C233.918 475.776 232.953 474.46 231.438 472.75L229 470L225.25 471C211.493 473.925 211.493 473.925 205.668 470.715C203.554 468.94 201.787 467.102 200 465L198.215 463C194.768 458.828 192.902 455.577 193 450C194.398 442.047 198.66 436.301 205.023 431.461C212.597 426.499 219.951 424.867 229 426C234.018 428.104 236.373 431.849 239.25 436.25L240.602 438.199C243.402 442.416 244.87 445.809 245 451C244.223 453.328 244.223 453.328 243.063 455.25C241.478 457.936 241 458.772 241 462C242.306 463.887 242.306 463.887 244 465.687L245.688 467.574L247 469L249.563 468.062C253 467 253 467 256.34 466.812C261.129 465.749 262.883 463.656 265.927 460.024L266 459.937L267.582 458.141C269.073 456.442 270.541 454.726 272 453C280.511 442.965 289.586 434.667 301 428C297.498 425.949 294.159 425.377 290.172 424.746L288.152 424.426C286.737 424.203 285.321 423.984 283.905 423.768C281.797 423.445 279.692 423.107 277.586 422.768C241.708 417.119 198.87 415.799 171 443Z" fill="#09818C"/>
<path d="M391 336L390.25 339.75C389.309 343.522 388.174 345.596 385 348C382 349 382 349 379.477 348.965C376.386 348.935 373.954 349.06 371 350C368.545 353.067 367.22 356.286 366 360L368.25 362.187C374.923 369.013 374.923 369.013 375.242 373.121C374.965 377.56 374.062 381.438 372.813 385.687L372.217 387.947C370.825 392.747 369.416 395.276 365 398C354.853 401.903 345.872 399.91 336 396C331.007 393.403 327.608 390.015 325 385C323.76 379.566 324.297 375.544 326.125 370.375L326.734 368.43C328.284 363.875 330.329 361.076 334 358C337.457 356.848 340.774 356.659 344.364 356.456L344.688 356.437L346.814 356.307C348.543 356.201 350.271 356.1 352 356C352.727 354.425 353.431 352.84 354.125 351.25L355.32 348.578C356.263 346.014 356.263 346.014 355.117 343.672L354 342C340.975 346.383 329.329 354.044 319 363L316.555 365.043C303.976 375.867 294.024 388.946 287 404V406C291.166 406.486 295.333 406.962 299.5 407.437L302.996 407.846C317.437 409.481 331.791 410.21 346.313 410.187L348.481 410.186C371.896 410.132 397.995 409.294 416.027 392.211C422.597 384.847 426.562 376.574 426.309 366.648C425.211 357.225 420.107 350.243 412.969 344.312C406.739 339.798 398.807 336 391 336Z" fill="#09818C"/>
<path d="M425 394L423.594 395.687C409.162 411.627 387.536 415.487 367 417C361.292 417.274 355.584 417.29 349.871 417.261C347.397 417.25 344.923 417.261 342.449 417.273C320.756 417.298 299.534 414.632 278.112 411.428C223.777 403.138 223.777 403.138 174 423C167.341 428.416 162.548 435.182 159 443L160 445L161.582 442.875C174.947 425.648 193.972 416.977 215.292 414.018C240.224 410.994 265.957 413.018 290.563 417.5C310.072 421.02 329.227 422.181 349.027 422.349C350.891 422.366 352.755 422.389 354.619 422.417C375.97 422.711 401.322 419.779 418 405C420.814 402.112 423.459 399.13 426 396L425 394Z" fill="#C7C7C7"/>
<path d="M253 475L253.188 478.812C253.167 482.703 253.167 482.703 251.875 485C249.182 486.436 247.012 486.184 244 486H240L239 490C242.703 491.433 244.938 490.832 248.438 489.312C254.976 486.135 259.572 482.73 264 477C262.688 475.646 261.354 474.313 260 473C257.647 473 255.206 474.249 253 475Z" fill="#C7C7C7"/>
<path d="M268 485L265.875 487.187C260.566 492.557 255.144 495.619 248 498L249 500C256.5 499.762 261.274 497.91 267 493C268.786 491.035 268.786 491.035 270 489C269.783 486.792 269.783 486.792 269 485H268Z" fill="#C7C7C7"/>
<path d="M235 443L233.5 445.625C227.584 454.457 217.014 458.854 207 461C208.018 463.139 208.018 463.139 210 465C217.403 466.184 223.716 462.649 229.75 458.687C233.391 455.931 235.703 452.949 238 449C237.644 446.027 237.162 445.162 235 443Z" fill="#C7C7C7"/>
<path d="M204.875 442.125C202.068 445.602 200 448.444 200 453C205.154 454.829 209.237 453.147 214 451C220.254 447.599 226.181 444.137 230 438C230.186 435.74 230.186 435.74 229 434C220.908 428.605 210.54 435.769 204.875 442.125Z" fill="#C7C7C7"/>
<path d="M331 380C332.735 385.677 335.957 387.851 341 390.687C346.515 393.1 352.025 393.607 358 393C361.184 391.645 362.54 390.767 364.313 387.812L365 386C357.903 379.376 349.414 377.397 339.941 376.883C336.123 377.035 334.079 377.801 331 380Z" fill="#C7C7C7"/>
<path d="M336.625 366.5L335 369C337.805 370.403 340.307 370.192 343.438 370.312C351.379 370.819 358.339 372.559 365 377H368L369 372C367.631 371.033 366.255 370.077 364.875 369.125L362.555 367.508C355.914 363.589 342.746 360.273 336.625 366.5Z" fill="#C7C7C7"/>
<path d="M356 333L358 336L359.5 335C363.256 333.498 365.95 333.614 370 334C372.575 336.325 373.397 338.624 374 342C376.832 342.334 376.832 342.334 380 342C382.377 340.125 382.377 340.125 384 338C379.686 332.496 374.76 331.191 368 330C361.201 329.148 361.201 329.148 356 333Z" fill="#C7C7C7"/>
<path d="M362 321V322L365.289 322.551C366.734 322.804 368.18 323.058 369.625 323.312L371.785 323.67C376.327 324.482 379.896 325.8 384 328H386L387 324C385.587 323.182 384.169 322.37 382.75 321.562L380.359 320.191C374.16 317.061 367.71 316.674 362 321Z" fill="#C7C7C7"/>
<path d="M220 76C224.556 76.5556 224.556 76.5556 226 78C226.329 85.6619 226.362 93.4369 225 101C224 102 224 102 221.563 102.188C219 102 219 102 217 100C216.438 92.7361 216.622 85.1656 218 78C218.66 77.34 219.32 76.68 220 76Z" fill="black"/>
<path d="M270 76C274.875 77.875 274.875 77.875 276 79C277.282 86.2607 277.34 93.6447 277 101C276 102 276 102 273.563 102.188C271 102 271 102 269 100C267.622 92.8344 267.438 85.2639 268 78C268.66 77.34 269.32 76.68 270 76Z" fill="black"/>
</svg>
