<svg width="512" height="512" viewBox="0 0 512 512" fill="none" xmlns="http://www.w3.org/2000/svg">
<path d="M273 29C279.309 34.8674 279.309 34.8674 282 38C282 38.66 282 39.32 282 40C282.575 39.93 283.149 39.86 283.741 39.7878C290.735 39.0046 297.654 38.8167 304.688 38.8125C306.32 38.7941 306.32 38.7941 307.986 38.7754C320.452 38.7526 320.452 38.7526 325.875 42.1875C327.685 45.104 327.883 47.6017 328 51C327.062 53.75 327.062 53.75 325 56C318.481 59.0542 312.638 59.5236 305.5 59.6875C304.487 59.7216 303.474 59.7558 302.43 59.791C299.953 59.8728 297.477 59.9421 295 60C295.416 61.3032 295.416 61.3032 295.84 62.6328C296.202 63.7852 296.564 64.9376 296.938 66.125C297.297 67.2619 297.657 68.3989 298.027 69.5703C303.812 89.9679 299.924 112.184 291 131C289.239 134.028 287.4 136.941 285.418 139.828C283.849 142.031 283.849 142.031 283 145C283.971 144.979 284.942 144.958 285.943 144.937C289.635 144.863 293.327 144.818 297.02 144.78C298.601 144.76 300.183 144.733 301.764 144.698C316.138 144.387 330.537 145.734 343.438 152.687C344.421 153.2 344.421 153.2 345.424 153.723C351.428 156.987 356.275 161.068 361 166C361.744 166.724 362.488 167.449 363.254 168.195C379.046 184.399 389.46 207.978 389.364 230.552C389.164 240.163 386.753 247.248 380.039 254.305C374.179 259.177 367.251 260.771 359.738 260.441C353.269 259.399 347.889 256.559 343.688 251.5C337.692 242.405 335.216 231.755 332.963 221.243C331.121 213.148 327.837 205.461 321.102 200.273C311.473 194.439 298.142 192.623 287 192C286.67 192.33 286.34 192.66 286 193C286.883 193.92 287.766 194.841 288.676 195.789C322.927 231.786 322.927 231.786 324.5 255.375C325.59 264.127 331.751 269.882 337.417 276.209C339.462 278.522 341.359 280.936 343.25 283.375C355.913 299.955 355.913 299.955 374 309C381.061 308.955 387.18 307.223 393.688 304.625C395.027 304.101 395.027 304.101 396.393 303.566C411.535 297.514 426.255 290.507 440.039 281.777C445.162 278.703 448.972 277.376 455 278C461.362 280.588 463.355 283.745 466 290C467.634 294.318 469.115 298.679 470.562 303.062C470.959 304.261 471.356 305.46 471.765 306.694C481.157 335.592 481.157 335.592 475 348C472.36 351.471 469.205 353.227 464.938 354C460.643 354 459.244 353.718 456 351C455.178 349.924 454.366 348.84 453.562 347.75C452.717 346.842 451.871 345.935 451 345C446.695 345.245 443.598 346.507 439.91 348.66C438.969 349.203 438.027 349.745 437.057 350.304C436.069 350.885 435.081 351.465 434.062 352.062C431.989 353.254 429.915 354.444 427.84 355.633C426.836 356.212 425.831 356.791 424.796 357.388C413.501 363.9 402.452 369.076 390 373C389.343 373.211 388.685 373.423 388.008 373.641C372.669 376.386 357.891 372.448 345 364C340.166 360.544 335.571 356.794 331 353C330.143 352.292 330.143 352.292 329.269 351.569C321.353 344.993 313.778 338.087 306.329 330.987C305.373 330.079 305.373 330.079 304.398 329.152C303.838 328.616 303.278 328.08 302.701 327.527C300.881 325.893 298.976 324.44 297 323C295.793 323.947 295.793 323.947 294.562 324.914C284.056 332.978 272.831 339.512 261.349 346.076C256.005 349.146 250.691 352.265 245.384 355.4C243.679 356.406 241.97 357.407 240.261 358.407C226.092 365.724 226.092 365.724 217.062 377.938C215.475 393.779 229.582 410.662 237.816 423.105C253.166 446.492 253.166 446.492 251 459C249.697 462.343 248.332 465.334 245 467C261.455 466.721 277.798 465.548 294.188 464.125C295.154 464.044 296.12 463.963 297.115 463.879C318.21 463.003 318.21 463.003 337 455C338.268 452.415 338.268 452.415 339 450C342.066 448.467 345.165 449.044 348.5 449.25C349.19 449.277 349.879 449.304 350.59 449.332C352.594 449.453 352.594 449.453 356 450C358.517 453.775 358.368 455.509 358 460C356.414 466.417 353.503 471.695 347.91 475.375C329.784 485.246 306.088 484.451 286 484C286.159 484.583 286.317 485.165 286.48 485.766C287.944 492.06 287.263 496.759 284.121 502.305C282.113 505.341 280.551 506.617 276.992 507.496C271.553 508.39 267.83 507.936 263 505C260.106 502.106 259.058 500.13 258.847 496.027C258.866 494.955 258.884 493.882 258.902 492.777C258.916 491.696 258.931 490.614 258.945 489.5C258.963 488.675 258.981 487.85 259 487C258.125 487.001 258.125 487.001 257.231 487.003C242.929 487.025 228.626 487.042 214.323 487.052C207.406 487.057 200.489 487.064 193.572 487.075C186.881 487.087 180.189 487.092 173.498 487.095C170.961 487.097 168.425 487.1 165.888 487.106C150.892 487.137 135.971 486.89 121 486C121.041 486.86 121.083 487.719 121.125 488.605C121.328 493.511 121.441 497.07 119.312 501.562C115.429 505.656 112.771 507.172 107.125 507.438C101.922 507.252 99.1144 506.209 95 503C91.2353 498.688 90.5753 494.627 90.7617 489.016C91 487 91 487 92 484C91.2737 484.009 90.5474 484.019 89.7991 484.029C82.4702 484.082 75.2404 483.789 67.9375 483.188C66.4399 483.082 66.4399 483.082 64.9121 482.975C55.9443 482.247 45.9859 481.134 39 475C35.4763 470.135 33.8724 465.455 33.75 459.5C33.7242 458.747 33.6984 457.994 33.6719 457.219C34.126 454.148 34.6052 453.038 37 451C40.129 450.317 43.1819 450.305 46.375 450.312C47.2258 450.272 48.0766 450.231 48.9531 450.189C51.4896 450.176 53.5676 450.269 56 451C57.2939 452.501 57.2939 452.501 58.3516 454.355C60.4338 457.796 62.0767 458.75 65.957 459.809C75.4117 461.699 85.0909 462.295 94.6875 463.062C96.7418 463.233 98.7961 463.404 100.85 463.575C134.878 466.531 134.878 466.531 169 467C168.939 465.748 168.879 464.497 168.816 463.207C168.824 459.288 168.824 459.288 170.215 457.012C175.992 452.571 181.637 450 189 450C188.648 449.326 188.296 448.653 187.934 447.959C184.48 441.345 181.041 434.723 177.611 428.097C176.323 425.621 175.021 423.154 173.707 420.691C165.247 404.64 159.085 387.367 153.938 370C153.651 369.04 153.364 368.081 153.068 367.092C150.09 356.625 148.413 346.775 153.688 336.812C158.493 330.968 164.386 326.98 170.609 322.735C177.227 318.202 183.625 313.385 190.002 308.523C191.326 307.514 192.651 306.508 193.978 305.504C206.552 296.762 206.552 296.762 214 284C214.443 278.344 213.248 274.475 210.625 269.562C210.09 268.531 210.09 268.531 209.545 267.479C200.885 251.088 190.157 234.157 177 221C176.93 221.588 176.86 222.176 176.788 222.781C172.891 254.905 162.635 279.643 137.204 300.471C125.643 309.489 114.993 315.349 100 314C93.7841 312.286 89.5441 308.285 86 303C83.9817 296.945 84.1244 290.293 86.5625 284.375C91.4631 274.795 98.9645 267.969 107 261C109.677 258.678 112.346 256.349 115 254C115.606 253.484 116.212 252.969 116.836 252.437C122.881 246.946 127.155 240.062 128.512 231.934C128.774 224.712 127.203 218.166 125.44 211.234C121.928 197.092 124.383 181.98 131 169C132.575 166.583 134.268 164.31 136 162C136 161.34 136 160.68 136 160C134.246 158.689 134.246 158.689 132 157.375C118.56 148.584 111.027 135.366 107 120C106.776 119.179 106.551 118.358 106.32 117.512C101.346 95.603 105.703 70.2761 117.312 51.125C121.063 45.6314 125.34 40.7369 130 36C130.737 35.2498 131.475 34.4995 132.234 33.7265C170.362 -2.73757 233.127 -6.26956 273 29ZM165 21C149.394 27.6182 135.803 38.1598 126 52C125.67 52.99 125.34 53.98 125 55C129.561 55.3519 133.597 55.3252 138 54C140.185 51.2305 141.264 48.5288 142.578 45.2617C147.223 34.6071 157.672 28.2361 167 22C166.34 21.67 165.68 21.34 165 21ZM316 46C316.66 47.65 317.32 49.3 318 51C318.99 50.34 319.98 49.68 321 49C320.67 48.01 320.34 47.02 320 46C318.68 46 317.36 46 316 46ZM281 61C281.205 61.6174 281.41 62.2349 281.621 62.8711C281.891 63.718 282.16 64.5649 282.438 65.4375C282.704 66.2612 282.971 67.0849 283.246 67.9336C285.337 76.44 285.247 85.1877 285.295 93.8992C285.307 95.3289 285.327 96.7587 285.357 98.1882C285.543 107.192 284.868 115.234 282.319 123.909C281.123 127.929 281.123 127.929 282 132C293.589 111.1 297.597 90.3631 291 67C290.349 64.995 289.686 62.9933 289 61C286.36 61 283.72 61 281 61ZM123 60.8125C119.294 62.2795 118.998 63.2894 117.312 66.8125C109.633 85.8007 107.75 108.585 115.812 127.812C116.514 129.223 117.244 130.618 118 132C118.443 132.831 118.887 133.663 119.344 134.52C124.118 142.989 130.134 149.719 139 154C142.31 154.862 142.31 154.862 145 155C141.768 151.496 141.768 151.496 137.812 148.937C135.426 147.703 135.166 146.392 134 144C133.071 142.723 132.133 141.452 131.188 140.187C123.008 128.099 121.813 113.953 121.815 99.7766C121.813 97.7031 121.794 95.6301 121.775 93.5566C121.722 80.9935 122.597 70.8523 131 61C128.321 60.9212 125.679 60.9799 123 60.8125ZM280 132C281 134 281 134 281 134L280 132ZM274 153C274 153.33 274 153.66 274 154C274.85 154.1 275.7 154.2 276.576 154.304C309.884 158.28 341.901 163.022 364.125 191.062C373.146 202.908 380.642 218.058 382 233C385.346 227.397 383.754 221.455 382.422 215.352C376.481 195.024 362.983 171.636 344.305 160.777C322.291 148.734 298.175 150.443 274 153ZM144 163C135.092 172.008 129.987 186.366 130.004 198.898C130.406 205.419 131.76 211.567 133.293 217.902C135.764 228.727 135.158 238.364 129.863 248.297C124.389 256.238 116.744 262.713 109.25 268.688C100.181 275.929 91.9157 283.889 90.5625 295.875C91.0406 299.29 91.5412 299.822 94 302C94.098 301.348 94.1959 300.695 94.2969 300.023C95.2543 294.428 96.3951 290.532 100 286C100.666 285.107 101.333 284.213 102.02 283.293C105.656 278.94 110.299 275.855 114.875 272.562C127.492 263.458 139.263 253.176 142 237C142.72 230.466 142.208 225.13 140 218.937C134.172 201.454 139.263 184.209 146.203 167.883C146.879 166.286 147.452 164.645 148 163C146.68 163 145.36 163 144 163ZM265 186C266.106 187.106 267.213 188.212 268.32 189.316C269.57 190.569 270.814 191.828 272.055 193.09C276.235 197.321 280.489 201.357 285.004 205.227C288.492 208.325 291.741 211.663 295 215C295 210.54 292.108 208.448 289.188 205.375C288.602 204.752 288.017 204.129 287.414 203.487C282.313 198.147 276.894 193.458 271 189C270.279 188.426 269.559 187.853 268.816 187.262C267.095 185.81 267.095 185.81 265 186ZM176 209C177.356 212.08 178.824 213.945 181.312 216.187C196.752 231.32 219.522 259.617 220.375 282.125C220.281 289.157 218.047 294.644 213.309 299.863C211.282 301.704 209.191 303.358 207 305C205.996 305.755 204.992 306.511 203.957 307.289C201.894 308.838 199.819 310.366 197.734 311.887C195.278 313.785 193.133 315.75 191 318C202.593 313.616 215.75 305.973 221.625 294.625C226.174 282.633 223.499 271.831 218.375 260.363C208.536 240.515 193.991 223.122 177 209C176.67 209 176.34 209 176 209ZM296 215C297.309 218.122 297.309 218.122 300 220C298.691 216.878 298.691 216.878 296 215ZM326 273C324.33 276.34 324.297 279.416 325 283C332.78 298.404 348.038 310.242 362.625 318.625C363.21 318.98 363.795 319.336 364.397 319.702C372.216 323.959 380.508 321.087 388.6 318.78C389.598 318.481 390.596 318.183 391.625 317.875C392.677 317.562 393.729 317.248 394.812 316.925C407.672 312.993 418.788 308.173 429.837 300.492C433.733 297.788 437.521 295.626 441.941 293.863C445.088 292.544 447.999 290.84 450.957 289.148C452.943 288.032 454.955 287.002 457 286C451.061 284.322 447.922 285.57 442.582 288.484C440.164 289.904 437.766 291.35 435.375 292.812C418.84 302.867 391.199 319.554 371.297 315.441C363.531 312.761 358.018 308.52 352 303C351.313 302.383 350.626 301.765 349.918 301.129C342.094 293.719 335.767 284.761 329.375 276.125C328.591 275.094 327.808 274.062 327 273C326.67 273 326.34 273 326 273ZM466 314C466.33 314.99 466.66 315.98 467 317C467 316.01 467 315.02 467 314C466.67 314 466.34 314 466 314ZM162 338C158.366 341.98 157.186 345.602 156.824 350.879C157.323 359.743 160.1 368.654 163 377C163.33 377 163.66 377 164 377C163.979 376.3 163.958 375.601 163.937 374.88C163.852 371.649 163.801 368.419 163.75 365.188C163.7 363.537 163.7 363.537 163.648 361.854C163.535 352.232 165.446 343.834 171.188 335.938C171.697 335.225 172.206 334.512 172.73 333.777C173.149 333.191 173.568 332.604 174 332C174.33 331.34 174.66 330.68 175 330C170.259 330 165.542 335.128 162 338ZM211 370C212 372 212 372 212 372L211 370ZM164 377C164.33 382.015 164.33 382.015 167 386C166.34 383.03 165.68 380.06 165 377C164.67 377 164.34 377 164 377ZM167 386C168.322 393.182 170.649 399.281 173.75 405.875C174.222 406.892 174.693 407.909 175.179 408.957C181.065 421.499 187.518 433.758 194 446C195.464 441.607 193.55 438.477 191.875 434.375C191.524 433.505 191.173 432.635 190.811 431.738C186.412 421.157 180.981 411.109 175.585 401.012C172.974 396.049 170.484 391.027 168 386C167.67 386 167.34 386 167 386ZM53 459C53.263 462.156 53.7226 463.695 55.875 466.062C62.7545 470.328 69.7709 472.174 77.7812 473.051C78.5197 473.134 79.2582 473.218 80.0191 473.304C87.4977 474.113 94.9862 474.578 102.498 474.95C104.708 475.06 106.919 475.179 109.129 475.299C114.085 475.561 119.042 475.787 124 476C125.048 476.045 126.096 476.09 127.175 476.137C146.228 476.933 165.246 477.125 184.312 477.062C187.023 477.057 189.733 477.053 192.443 477.049C198.962 477.038 205.481 477.021 212 477C212 476.67 212 476.34 212 476C202.75 475.454 193.503 475.012 184.238 474.816C159.766 474.29 135.406 472.852 111 471C109.728 470.904 109.728 470.904 108.431 470.806C103.708 470.447 98.9871 470.074 94.2674 469.679C92.874 469.563 91.4804 469.449 90.0866 469.337C65.3741 467.341 65.3741 467.341 57 462C56.34 462 55.68 462 55 462C54.67 461.01 54.34 460.02 54 459C53.67 459 53.34 459 53 459ZM252 474C256 475 256 475 256 475L252 474ZM218 475C218 475.33 218 475.66 218 476C224.93 476 231.86 476 239 476C239 475.67 239 475.34 239 475C232.07 475 225.14 475 218 475ZM100 485C99.67 485.99 99.34 486.98 99 488C100.031 488.077 100.031 488.077 101.082 488.156C103.927 488.514 106.335 488.927 109 490C110.862 492.676 111.267 494.753 112 498C113.964 496.366 114.923 495.536 115.293 492.957C115.241 491.895 115.241 491.895 115.188 490.812C115.126 489.554 115.064 488.296 115 487C111.651 484.974 109.13 484.783 105.25 484.875C104.265 484.893 103.28 484.911 102.266 484.93C101.518 484.953 100.77 484.976 100 485ZM269.125 486.5C268.754 486.995 268.382 487.49 268 488C269.093 488.186 270.186 488.371 271.312 488.562C275 490 275 490 276.133 491.691C276.938 493.625 276.938 493.625 278 497C279.707 495.964 279.707 495.964 281 494C281.001 490.422 281.001 490.422 280 487C276.297 484.531 272.845 483.524 269.125 486.5Z" fill="#F8EF00"/>
<path d="M273 29C279.309 34.8674 279.309 34.8674 282 38C282 38.66 282 39.32 282 40C282.575 39.93 283.149 39.86 283.741 39.7878C290.735 39.0046 297.654 38.8167 304.688 38.8125C306.32 38.7941 306.32 38.7941 307.986 38.7754C320.452 38.7526 320.452 38.7526 325.875 42.1875C327.685 45.104 327.883 47.6017 328 51C327.062 53.75 327.062 53.75 325 56C318.481 59.0542 312.638 59.5236 305.5 59.6875C304.487 59.7216 303.474 59.7558 302.43 59.791C299.953 59.8728 297.477 59.9421 295 60C295.416 61.3032 295.416 61.3032 295.84 62.6328C296.202 63.7852 296.564 64.9376 296.938 66.125C297.297 67.2619 297.657 68.3989 298.027 69.5703C303.812 89.9679 299.924 112.184 291 131C289.239 134.028 287.4 136.941 285.418 139.828C283.849 142.031 283.849 142.031 283 145C283.971 144.979 284.942 144.958 285.943 144.937C289.635 144.863 293.327 144.818 297.02 144.78C298.601 144.76 300.183 144.733 301.764 144.698C316.138 144.387 330.537 145.734 343.438 152.687C344.421 153.2 344.421 153.2 345.424 153.723C351.428 156.987 356.275 161.068 361 166C361.744 166.724 362.488 167.449 363.254 168.195C379.046 184.399 389.46 207.978 389.364 230.552C389.164 240.163 386.753 247.248 380.039 254.305C374.179 259.177 367.251 260.771 359.738 260.441C353.269 259.399 347.889 256.559 343.688 251.5C337.692 242.405 335.216 231.755 332.963 221.243C331.121 213.148 327.837 205.461 321.102 200.273C311.473 194.439 298.142 192.623 287 192C286.67 192.33 286.34 192.66 286 193C286.883 193.92 287.766 194.841 288.676 195.789C322.927 231.786 322.927 231.786 324.5 255.375C325.59 264.127 331.751 269.882 337.417 276.209C339.462 278.522 341.359 280.936 343.25 283.375C355.913 299.955 355.913 299.955 374 309C381.061 308.955 387.18 307.223 393.688 304.625C395.027 304.101 395.027 304.101 396.393 303.566C411.535 297.514 426.255 290.507 440.039 281.777C445.162 278.703 448.972 277.376 455 278C461.362 280.588 463.355 283.745 466 290C467.634 294.318 469.115 298.679 470.562 303.062C470.959 304.261 471.356 305.46 471.765 306.694C481.157 335.592 481.157 335.592 475 348C472.36 351.471 469.205 353.227 464.938 354C460.643 354 459.244 353.718 456 351C455.178 349.924 454.366 348.84 453.562 347.75C452.717 346.842 451.871 345.935 451 345C446.695 345.245 443.598 346.507 439.91 348.66C438.969 349.203 438.027 349.745 437.057 350.304C436.069 350.885 435.081 351.465 434.062 352.062C431.989 353.254 429.915 354.444 427.84 355.633C426.836 356.212 425.831 356.791 424.796 357.388C413.501 363.9 402.452 369.076 390 373C389.343 373.211 388.685 373.423 388.008 373.641C372.669 376.386 357.891 372.448 345 364C340.166 360.544 335.571 356.794 331 353C330.143 352.292 330.143 352.292 329.269 351.569C321.353 344.993 313.778 338.087 306.329 330.987C305.373 330.079 305.373 330.079 304.398 329.152C303.838 328.616 303.278 328.08 302.701 327.527C300.881 325.893 298.976 324.44 297 323C295.793 323.947 295.793 323.947 294.562 324.914C284.056 332.978 272.831 339.512 261.349 346.076C256.005 349.146 250.691 352.265 245.384 355.4C243.679 356.406 241.97 357.407 240.261 358.407C226.092 365.724 226.092 365.724 217.062 377.938C215.475 393.779 229.582 410.662 237.816 423.105C253.166 446.492 253.166 446.492 251 459C249.697 462.343 248.332 465.334 245 467C261.455 466.721 277.798 465.548 294.188 464.125C295.154 464.044 296.12 463.963 297.115 463.879C318.21 463.003 318.21 463.003 337 455C338.268 452.415 338.268 452.415 339 450C342.066 448.467 345.165 449.044 348.5 449.25C349.19 449.277 349.879 449.304 350.59 449.332C352.594 449.453 352.594 449.453 356 450C358.517 453.775 358.368 455.509 358 460C356.414 466.417 353.503 471.695 347.91 475.375C329.784 485.246 306.088 484.451 286 484C286.159 484.583 286.317 485.165 286.48 485.766C287.944 492.06 287.263 496.759 284.121 502.305C282.113 505.341 280.551 506.617 276.992 507.496C271.553 508.39 267.83 507.936 263 505C260.106 502.106 259.058 500.13 258.847 496.027C258.866 494.955 258.884 493.882 258.902 492.777C258.916 491.696 258.931 490.614 258.945 489.5C258.963 488.675 258.981 487.85 259 487C258.125 487.001 258.125 487.001 257.231 487.003C242.929 487.025 228.626 487.042 214.323 487.052C207.406 487.057 200.489 487.064 193.572 487.075C186.881 487.087 180.189 487.092 173.498 487.095C170.961 487.097 168.425 487.1 165.888 487.106C150.892 487.137 135.971 486.89 121 486C121.041 486.86 121.083 487.719 121.125 488.605C121.328 493.511 121.441 497.07 119.312 501.562C115.429 505.656 112.771 507.172 107.125 507.438C101.922 507.252 99.1144 506.209 95 503C91.2353 498.688 90.5753 494.627 90.7617 489.016C91 487 91 487 92 484C91.2737 484.009 90.5474 484.019 89.7991 484.029C82.4702 484.082 75.2404 483.789 67.9375 483.188C66.4399 483.082 66.4399 483.082 64.9121 482.975C55.9443 482.247 45.9859 481.134 39 475C35.4763 470.135 33.8724 465.455 33.75 459.5C33.7242 458.747 33.6984 457.994 33.6719 457.219C34.126 454.148 34.6052 453.038 37 451C40.129 450.317 43.1819 450.305 46.375 450.312C47.2258 450.272 48.0766 450.231 48.9531 450.189C51.4896 450.176 53.5676 450.269 56 451C57.2939 452.501 57.2939 452.501 58.3516 454.355C60.4338 457.796 62.0767 458.75 65.957 459.809C75.4117 461.699 85.0909 462.295 94.6875 463.062C96.7418 463.233 98.7961 463.404 100.85 463.575C134.878 466.531 134.878 466.531 169 467C168.939 465.748 168.879 464.497 168.816 463.207C168.824 459.288 168.824 459.288 170.215 457.012C175.992 452.571 181.637 450 189 450C188.648 449.326 188.296 448.653 187.934 447.959C184.48 441.345 181.041 434.723 177.611 428.097C176.323 425.621 175.021 423.154 173.707 420.691C165.247 404.64 159.085 387.367 153.938 370C153.651 369.04 153.364 368.081 153.068 367.092C150.09 356.625 148.413 346.775 153.688 336.812C158.493 330.968 164.386 326.98 170.609 322.735C177.227 318.202 183.625 313.385 190.002 308.523C191.326 307.514 192.651 306.508 193.978 305.504C206.552 296.762 206.552 296.762 214 284C214.443 278.344 213.248 274.475 210.625 269.562C210.09 268.531 210.09 268.531 209.545 267.479C200.885 251.088 190.157 234.157 177 221C176.93 221.588 176.86 222.176 176.788 222.781C172.891 254.905 162.635 279.643 137.204 300.471C125.643 309.489 114.993 315.349 100 314C93.7841 312.286 89.5441 308.285 86 303C83.9817 296.945 84.1244 290.293 86.5625 284.375C91.4631 274.795 98.9645 267.969 107 261C109.677 258.678 112.346 256.349 115 254C115.606 253.484 116.212 252.969 116.836 252.437C122.881 246.946 127.155 240.062 128.512 231.934C128.774 224.712 127.203 218.166 125.44 211.234C121.928 197.092 124.383 181.98 131 169C132.575 166.583 134.268 164.31 136 162C136 161.34 136 160.68 136 160C134.246 158.689 134.246 158.689 132 157.375C118.56 148.584 111.027 135.366 107 120C106.776 119.179 106.551 118.358 106.32 117.512C101.346 95.603 105.703 70.2761 117.312 51.125C121.063 45.6314 125.34 40.7369 130 36C130.737 35.2498 131.475 34.4995 132.234 33.7265C170.362 -2.73757 233.127 -6.26956 273 29ZM165 21C149.394 27.6182 135.803 38.1598 126 52C125.67 52.99 125.34 53.98 125 55C129.561 55.3519 133.597 55.3252 138 54C140.185 51.2305 141.264 48.5288 142.578 45.2617C147.223 34.6071 157.672 28.2361 167 22C166.34 21.67 165.68 21.34 165 21ZM316 46C316.66 47.65 317.32 49.3 318 51C318.99 50.34 319.98 49.68 321 49C320.67 48.01 320.34 47.02 320 46C318.68 46 317.36 46 316 46ZM148.633 58.8867C147.362 58.9644 146.092 59.0422 144.783 59.1223C141.183 59.3685 137.593 59.6669 134 60C132.71 60.1136 131.42 60.2273 130.091 60.3444C128.207 60.5525 128.207 60.5525 126.285 60.7649C125.154 60.8839 124.024 61.0029 122.859 61.1255C119.836 61.7631 119.836 61.7631 118.076 64.3286C116.66 67.1831 115.8 69.9162 115 73C114.7 74.039 114.399 75.078 114.09 76.1484C109.18 94.2799 108.758 115.108 118 132C118.443 132.831 118.887 133.663 119.344 134.52C125.326 145.131 132.949 152.444 144.814 155.767C150.336 157.368 150.336 157.368 156 158C156 159.65 156 161.3 156 163C154.822 162.826 154.822 162.826 153.621 162.648C147.274 162.021 147.274 162.021 141.82 164.805C139.92 167.449 138.433 170.076 137 173C136.518 173.973 136.036 174.946 135.539 175.949C128.985 190.441 129.618 202.715 133.293 217.902C135.764 228.727 135.158 238.364 129.863 248.297C124.389 256.238 116.744 262.713 109.25 268.688C100.091 276.001 92.4197 283.766 90.375 295.625C91.2326 300.256 93.578 302.862 97 306C102.257 308.629 109.679 307.611 115.176 306.164C122.512 303.329 128.139 299.165 134 294C134.687 293.444 135.374 292.889 136.082 292.316C141.886 287.543 146.354 281.873 151 276C151.717 275.161 152.433 274.322 153.172 273.457C165.166 259.276 169.24 240.161 171 222C171.16 220.689 171.16 220.689 171.324 219.352C171.653 215.023 171.653 215.023 169.691 211.297C168.624 210.283 167.528 209.3 166.402 208.352C164.437 206.458 164.157 204.667 164 202C165.675 202.985 167.34 203.989 169 205C169.949 205.557 170.897 206.114 171.875 206.687C175.153 209.113 177.497 211.651 180.102 214.762C182.056 217.066 184.114 219.24 186.188 221.437C195.224 231.5 202.521 242.954 209.5 254.5C209.992 255.312 210.484 256.124 210.991 256.96C216.941 266.983 221.357 276.1 220 288C217.636 295.621 213.252 300.303 207 305C205.772 305.942 205.772 305.942 204.52 306.902C202.01 308.803 199.484 310.679 196.952 312.55C194.671 314.244 192.402 315.953 190.133 317.664C189.267 318.316 188.401 318.969 187.509 319.641C185.799 320.929 184.09 322.218 182.382 323.508C177.369 327.277 172.293 330.928 167.127 334.484C162.196 337.999 158.235 341.907 157 348C157.004 356.149 158.698 363.75 161.062 371.5C161.375 372.54 161.687 373.579 162.009 374.651C169.332 398.462 180.194 421.163 192.611 442.721C196.556 449.646 196.556 449.646 197 454C195.857 454.255 195.857 454.255 194.691 454.516C188.087 456.066 182.076 457.977 176 461C176 462.32 176 463.64 176 465C178.588 466.294 180.466 466.13 183.363 466.133C184.468 466.135 185.572 466.137 186.71 466.139C188.493 466.132 188.493 466.132 190.312 466.125C191.528 466.121 192.744 466.117 193.997 466.113C220.135 467.721 220.135 467.721 243.371 459.621C245.611 456.017 245.688 453.066 245 449C241.962 438.083 235.143 428.172 228.916 418.818C224.622 412.357 220.737 405.905 217.438 398.875C217.115 398.189 216.793 397.503 216.461 396.796C213.718 390.744 211.716 384.756 211.438 378.062C211.374 377.105 211.311 376.147 211.246 375.16C212.735 368.918 217.662 364.645 222.934 361.262C224.427 360.389 225.929 359.532 227.438 358.688C229.205 357.66 230.972 356.633 232.738 355.605C233.72 355.041 234.702 354.477 235.713 353.896C242.213 350.147 248.669 346.324 255.125 342.5C255.82 342.089 256.514 341.678 257.23 341.254C295.259 319.501 295.259 319.501 318.094 283.559C322.414 265.977 320.266 249.631 311 234C305.569 225.541 299.568 217.615 293 210C292.575 209.506 292.149 209.012 291.711 208.503C284.516 200.218 276.852 192.45 267.375 186.75C265 185 265 185 264.125 182.25C264.084 181.507 264.043 180.765 264 180C267.204 180.366 268.707 180.72 271.078 182.984C275.163 185.802 278.702 185.742 283.562 186C319.493 188.728 319.493 188.728 330.5 200.25C335.655 207.244 337.326 215.141 339 223.5C341.142 234.158 343.377 243.644 352 251C356.791 253.992 361.381 254.466 366.902 253.566C373.128 251.885 377.391 247.104 381 242C385.614 232.332 384.444 220.835 381 211C372.704 190.385 361.207 169.785 341 159C340.274 158.603 339.549 158.206 338.801 157.797C318.086 147.535 289.971 149.904 268 154C268.472 149.251 270.4 147.043 273.562 143.562C282.453 133.344 288.103 122.002 292 109C292.369 107.778 292.369 107.778 292.746 106.531C296.488 91.4616 293.965 75.4193 289 61C285.209 60.6779 281.417 60.3694 277.625 60.0625C276.603 59.9755 275.581 59.8885 274.527 59.7988C251.877 57.9895 229.17 57.8115 206.462 57.8147C203.415 57.8148 200.368 57.8078 197.32 57.7942C181.063 57.7226 164.863 57.8793 148.633 58.8867ZM326 273C324.33 276.34 324.297 279.416 325 283C332.78 298.404 348.038 310.242 362.625 318.625C363.21 318.98 363.795 319.336 364.397 319.702C372.216 323.959 380.508 321.087 388.6 318.78C389.598 318.481 390.596 318.183 391.625 317.875C392.677 317.562 393.729 317.248 394.812 316.925C407.672 312.993 418.788 308.173 429.837 300.492C433.733 297.788 437.521 295.626 441.941 293.863C445.088 292.544 447.999 290.84 450.957 289.148C452.943 288.032 454.955 287.002 457 286C451.061 284.322 447.922 285.57 442.582 288.484C440.164 289.904 437.766 291.35 435.375 292.812C418.84 302.867 391.199 319.554 371.297 315.441C363.531 312.761 358.018 308.52 352 303C351.313 302.383 350.626 301.765 349.918 301.129C342.094 293.719 335.767 284.761 329.375 276.125C328.591 275.094 327.808 274.062 327 273C326.67 273 326.34 273 326 273ZM466 314C466.33 314.99 466.66 315.98 467 317C467 316.01 467 315.02 467 314C466.67 314 466.34 314 466 314ZM53 459C53.263 462.156 53.7226 463.695 55.875 466.062C62.7545 470.328 69.7709 472.174 77.7812 473.051C78.5197 473.134 79.2582 473.218 80.0191 473.304C87.4977 474.113 94.9862 474.578 102.498 474.95C104.708 475.06 106.919 475.179 109.129 475.299C114.085 475.561 119.042 475.787 124 476C125.048 476.045 126.096 476.09 127.175 476.137C146.228 476.933 165.246 477.125 184.312 477.062C187.023 477.057 189.733 477.053 192.443 477.049C198.962 477.038 205.481 477.021 212 477C212 476.67 212 476.34 212 476C202.75 475.454 193.503 475.012 184.238 474.816C159.766 474.29 135.406 472.852 111 471C109.728 470.904 109.728 470.904 108.431 470.806C103.708 470.447 98.9871 470.074 94.2674 469.679C92.874 469.563 91.4804 469.449 90.0866 469.337C65.3741 467.341 65.3741 467.341 57 462C56.34 462 55.68 462 55 462C54.67 461.01 54.34 460.02 54 459C53.67 459 53.34 459 53 459ZM252 474C256 475 256 475 256 475L252 474ZM218 475C218 475.33 218 475.66 218 476C224.93 476 231.86 476 239 476C239 475.67 239 475.34 239 475C232.07 475 225.14 475 218 475ZM100 485C99.67 485.99 99.34 486.98 99 488C100.031 488.077 100.031 488.077 101.082 488.156C103.927 488.514 106.335 488.927 109 490C110.862 492.676 111.267 494.753 112 498C113.964 496.366 114.923 495.536 115.293 492.957C115.241 491.895 115.241 491.895 115.188 490.812C115.126 489.554 115.064 488.296 115 487C111.651 484.974 109.13 484.783 105.25 484.875C104.265 484.893 103.28 484.911 102.266 484.93C101.518 484.953 100.77 484.976 100 485ZM269.125 486.5C268.754 486.995 268.382 487.49 268 488C269.093 488.186 270.186 488.371 271.312 488.562C275 490 275 490 276.133 491.691C276.938 493.625 276.938 493.625 278 497C279.707 495.964 279.707 495.964 281 494C281.001 490.422 281.001 490.422 280 487C276.297 484.531 272.845 483.524 269.125 486.5Z" fill="#32135E"/>
<path d="M324 282C326.491 284.411 328.685 286.798 330.688 289.625C339.531 301.512 349.794 310.264 362.625 317.625C363.21 317.98 363.795 318.336 364.397 318.702C372.216 322.96 380.508 320.088 388.6 317.78C389.598 317.481 390.596 317.183 391.625 316.875C392.677 316.562 393.729 316.248 394.812 315.925C407.672 311.993 418.788 307.173 429.837 299.492C433.733 296.788 437.517 294.618 441.945 292.871C445.091 291.537 447.953 289.74 450.859 287.953C453.383 286.83 455.267 286.828 458 287C458.93 289.546 459.857 292.093 460.781 294.641C461.632 296.986 462.486 299.329 463.344 301.672C463.787 302.894 464.231 304.116 464.688 305.375C465.104 306.517 465.52 307.659 465.949 308.836C466.861 311.581 467.455 314.168 468 317C468.706 319.417 469.414 321.834 470.125 324.25C472.142 331.52 472.647 336.84 469.812 344C468 346 468 346 465.062 346.938C461.759 347.005 460.621 346.945 458 345C457.237 343.989 456.474 342.979 455.688 341.938C453.261 338.759 453.261 338.759 449.746 338.117C445.234 337.976 443.268 338.946 439.375 341.188C438.43 341.718 438.43 341.718 437.467 342.259C435.298 343.485 433.148 344.739 431 346C389.874 370.099 389.874 370.099 372 368C371.225 367.917 370.451 367.835 369.652 367.75C351.257 364.951 336.063 350.268 323 338C321.673 336.826 320.34 335.659 319 334.5C318.07 333.686 318.07 333.686 317.121 332.855C315.451 331.395 313.775 329.94 312.098 328.488C311.085 327.597 310.074 326.705 309.062 325.812C308.125 324.994 307.188 324.175 306.223 323.332C304 321 304 321 302.934 318.98C303.039 315.842 304.811 314.66 307 312.5C315.393 303.598 319.991 293.454 324 282Z" fill="#F8EF00"/>
<path d="M264.312 28.875C272.623 35.9428 280.479 43.4939 286 53C286 53.66 286 54.32 286 55C285.086 54.9624 285.086 54.9624 284.153 54.9241C277.412 54.6497 270.671 54.393 263.929 54.1455C261.381 54.0512 258.833 53.9543 256.286 53.8545C237.065 53.1126 217.859 52.8952 198.625 52.875C196.938 52.8711 196.938 52.8711 195.218 52.8672C182.561 52.8442 169.964 53.0235 157.329 53.7796C150.889 54.1478 144.448 54.0879 138 54C139.659 43.0948 149.414 33.5316 157.898 27.1133C189.624 4.05529 233.166 4.96033 264.312 28.875Z" fill="#E9003D"/>
<path d="M344 456C346.64 456 349.28 456 352 456C351.722 460.629 351.065 464.101 347.832 467.586C336.898 476.026 321.533 476.289 308.375 477.035C306.979 477.119 305.583 477.203 304.187 477.288C300.532 477.509 296.876 477.722 293.221 477.933C289.56 478.146 285.899 478.368 282.238 478.588C274.853 479.03 267.468 479.467 260.082 479.881C257.863 480.008 255.645 480.141 253.426 480.274C242.625 480.904 231.869 481.148 221.051 481.133C219.393 481.134 217.736 481.135 216.078 481.137C211.719 481.14 207.359 481.136 203 481.129C200.288 481.125 197.576 481.122 194.865 481.119C154.698 481.073 114.764 480.301 74.697 477.207C72.872 477.067 71.0466 476.932 69.2209 476.8C66.5153 476.602 63.8126 476.38 61.1094 476.152C60.3082 476.097 59.5069 476.041 58.6815 475.983C52.3575 475.407 46.9061 473.531 42.0625 469.312C40.4143 465.725 40.0319 461.933 40 458C41 457 41 457 43.5039 456.902C45.0179 456.92 45.0179 456.92 46.5625 456.938C47.5744 456.947 48.5863 456.956 49.6289 456.965C50.8026 456.982 50.8026 456.982 52 457C52.1959 457.531 52.3919 458.062 52.5938 458.609C54.2474 462.515 55.6756 465.281 59.5 467.312C68.3961 470.882 77.6044 472.467 87.125 473.062C88.2529 473.138 89.3809 473.213 90.543 473.291C94.6943 473.551 98.8464 473.78 103 474C103.833 474.045 104.667 474.09 105.525 474.136C166.314 477.379 226.796 476.587 287.438 471.5C288.721 471.392 290.004 471.285 291.325 471.174C295.008 470.862 298.69 470.542 302.371 470.219C303.455 470.126 304.538 470.033 305.655 469.938C324.693 468.919 324.693 468.919 341.062 460.375C343.007 458.168 343.007 458.168 344 456Z" fill="#017EEA"/>
<path d="M210.842 30.832C211.92 30.805 212.998 30.7779 214.109 30.75C215.022 30.7242 215.934 30.6984 216.874 30.6719C217.576 30.7802 218.277 30.8884 219 31C221.405 34.6076 221.24 36.3484 221.188 40.625C221.181 41.7929 221.175 42.9608 221.168 44.1641C221 47 221 47 220 48C218.472 48.1277 216.938 48.1883 215.404 48.2212C214.427 48.2444 213.449 48.2675 212.442 48.2914C211.378 48.3113 210.314 48.3311 209.219 48.3516C207.593 48.3863 207.593 48.3863 205.934 48.4217C203.638 48.4694 201.341 48.5147 199.044 48.5576C195.515 48.6247 191.986 48.7024 188.457 48.7812C186.232 48.8262 184.007 48.8705 181.781 48.9141C180.718 48.938 179.654 48.9619 178.558 48.9865C177.581 49.0033 176.603 49.0202 175.596 49.0376C174.73 49.0546 173.865 49.0715 172.974 49.089C171 49 171 49 170 48C169.763 45.474 169.578 42.9689 169.438 40.4375C169.394 39.7266 169.351 39.0157 169.307 38.2832C169.2 36.5224 169.1 34.7612 169 33C174.192 32.711 179.384 32.4263 184.576 32.1455C186.337 32.0497 188.098 31.9527 189.859 31.8545C196.852 31.4651 203.845 31.1379 210.842 30.832Z" fill="#37135D"/>
<path d="M287 45C291.25 44.9419 295.5 44.9064 299.75 44.875C300.957 44.8582 302.163 44.8415 303.406 44.8242C304.566 44.8178 305.727 44.8113 306.922 44.8047C307.99 44.7942 309.058 44.7837 310.159 44.7729C313.008 45.0006 314.638 45.4217 317 47C317.812 49.0625 317.812 49.0625 318 51C315.27 53.7303 307.297 52.3339 303.625 52.375C302.367 52.4124 301.109 52.4498 299.812 52.4883C298.007 52.5057 298.007 52.5057 296.164 52.5234C295.055 52.5433 293.946 52.5631 292.803 52.5835C290 52 290 52 288.115 49.5923C287 47 287 47 287 45Z" fill="#E2003E"/>
<path d="M215 37C215 38.65 215 40.3 215 42C201.653 42.9227 188.376 43.1224 175 43C175 41.68 175 40.36 175 39C180.346 37.952 185.635 37.6743 191.062 37.4375C192.451 37.3738 192.451 37.3738 193.868 37.3088C200.917 37.0038 207.944 36.8822 215 37Z" fill="#E7DC08"/>
<path d="M102.812 487.688C105.817 487.741 106.833 487.893 109.438 489.562C111.437 492.681 111.719 495.342 112 499C109 501 109 501 105.625 500.938C101.29 499.816 99.5886 498.64 97 495C97.2079 489.596 97.3173 488.138 102.812 487.688Z" fill="#017FEB"/>
<path d="M275 489C277 491.188 277 491.188 278 494C277.812 497.25 277.812 497.25 277 500C273.917 501.542 271.391 501.297 268 501C265.337 498.767 265.047 497.38 264.625 493.938C265 491 265 491 266.062 489.063C269.29 487.293 271.563 488.018 275 489Z" fill="#0080ED"/>
<path d="M206 88C209.692 88.6923 209.692 88.6923 211 90C211.086 91.3427 211.107 92.6897 211.098 94.0352C211.093 95.2485 211.093 95.2485 211.088 96.4863C211.08 97.3365 211.071 98.1866 211.062 99.0625C211.058 99.9165 211.053 100.771 211.049 101.65C211.037 103.767 211.019 105.883 211 108C209.125 108.625 209.125 108.625 207 109C205 107 205 107 204.757 105.136C204.761 104.399 204.765 103.662 204.77 102.902C204.771 102.101 204.773 101.3 204.775 100.475C204.788 99.6374 204.8 98.8001 204.812 97.9375C204.813 97.0964 204.814 96.2553 204.814 95.3887C204.86 89.1402 204.86 89.1402 206 88Z" fill="#402357"/>
<path d="M159 87C161.475 87.495 161.475 87.495 164 88C164.33 94.27 164.66 100.54 165 107C163.68 107.33 162.36 107.66 161 108C159.139 103.295 158.749 99.1242 158.875 94.125C158.889 93.0925 158.889 93.0925 158.902 92.0391C158.926 90.3592 158.962 88.6796 159 87Z" fill="#37195B"/>
</svg>
