<svg width="35" height="25" viewBox="0 0 35 25" fill="none" xmlns="http://www.w3.org/2000/svg">
<path d="M35 21.1538C35 22.1739 34.5903 23.1522 33.861 23.8735C33.1317 24.5948 32.1425 25 31.1111 25H3.88889C2.85749 25 1.86834 24.5948 1.13903 23.8735C0.409721 23.1522 0 22.1739 0 21.1538V3.84615C0 2.82609 0.409721 1.84781 1.13903 1.12651C1.86834 0.405218 2.85749 0 3.88889 0H31.1111C32.1425 0 33.1317 0.405218 33.861 1.12651C34.5903 1.84781 35 2.82609 35 3.84615V21.1538Z" fill="#009B3A"/>
<path d="M31.8189 12.5L17.5 23.1962L3.18111 12.5L17.5 1.80289L31.8189 12.5Z" fill="#FEDF01"/>
<path d="M17.4767 18.6365C20.9442 18.6365 23.7553 15.8564 23.7553 12.4269C23.7553 8.99745 20.9442 6.21731 17.4767 6.21731C14.0091 6.21731 11.1981 8.99745 11.1981 12.4269C11.1981 15.8564 14.0091 18.6365 17.4767 18.6365Z" fill="#002776"/>
<path d="M11.936 9.50673C11.6099 10.1145 11.389 10.772 11.2826 11.4519C15.1667 11.1731 20.4381 13.2702 22.7004 15.8702C23.0913 15.2894 23.381 14.6394 23.5589 13.9433C20.7667 11.2433 15.8618 9.49134 11.936 9.50673Z" fill="#CBE9D4"/>
<path d="M11.6667 12.724H12.6389V13.6856H11.6667V12.724ZM12.6389 14.6471H13.6111V15.6087H12.6389V14.6471Z" fill="#88C9F9"/>
<path d="M14.5833 12.724H15.5556V13.6856H14.5833V12.724ZM16.5278 13.6856H17.5V14.6471H16.5278V13.6856ZM20.4167 15.6087H21.3889V16.5702H20.4167V15.6087ZM17.5 16.5702H18.4722V17.5317H17.5V16.5702ZM20.4167 10.801H21.3889V11.7625H20.4167V10.801Z" fill="#55ACEE"/>
<path d="M18.4722 14.6471H19.4444V15.6087H18.4722V14.6471Z" fill="#3B88C3"/>
</svg>
