<svg width="372" height="525" viewBox="0 0 372 525" fill="none" xmlns="http://www.w3.org/2000/svg">
<g clip-path="url(#clip0_2287_6)">
<path d="M308.272 41.9483C330.797 60.0532 345.912 84.735 349.866 113.659C352.058 139.362 346.395 166.002 330.241 186.597C328.905 188.175 327.55 189.737 326.178 191.284C325.387 192.184 324.595 193.084 323.78 194.011C320.658 197.517 317.53 200.996 314.178 204.284C314.64 204.685 315.101 205.086 315.577 205.499C317.783 207.421 319.981 209.352 322.178 211.284C323.335 212.297 323.335 212.297 324.514 213.331C346.249 232.604 367.652 256.077 371.178 286.284C372.354 307.092 368.26 323.247 355.491 339.972C348.208 349.584 345.749 357.734 345.647 369.804C345.09 373.939 343.77 376.054 341.178 379.284C336.729 382.318 332.464 383.165 327.178 382.284C322.398 380.701 318.681 378.916 315.178 375.284C315.139 376.422 315.099 377.56 315.058 378.733C314.19 403.045 312.773 427.207 310.331 451.413C309.632 458.358 308.972 465.301 308.495 472.265C308.408 473.526 308.321 474.787 308.231 476.086C308.187 478.784 308.334 480.749 309.178 483.284C309.891 483.454 310.604 483.625 311.339 483.8C318.059 485.5 324.169 487.074 329.053 492.284C331.7 496.99 331.864 502.034 330.753 507.304C328.773 513.656 325.047 517.13 319.319 520.319C307.214 525.363 292.103 522.09 279.553 520.472C278.249 520.307 276.944 520.142 275.6 519.971C258.968 517.682 258.968 517.682 253.178 510.284C249.746 503.154 249.751 495.983 249.772 488.214C249.752 485.617 249.732 483.02 249.712 480.423C249.706 479.059 249.701 477.695 249.697 476.331C249.67 469.324 249.581 462.318 249.483 455.312C249.474 454.618 249.464 453.924 249.454 453.209C249.28 441.016 248.767 428.879 247.803 416.722C247.746 415.953 247.688 415.185 247.629 414.394C246.842 397.093 246.842 397.093 239.178 382.284C236.38 380.885 234.273 381.032 231.178 381.284C225.685 385.564 225.124 393.92 224.264 400.386C224.016 402.559 223.78 404.734 223.553 406.909C223.429 408.059 223.304 409.208 223.175 410.392C220.968 431.214 220.525 451.589 222.467 472.444C224.827 498.273 224.827 498.273 217.428 508.659C216.38 509.898 215.297 511.108 214.178 512.284C213.652 512.839 213.127 513.393 212.585 513.964C202.959 523.09 189.277 524.583 176.537 524.262C165.829 523.782 153.347 522.835 145.178 515.284C142.92 511.588 142.894 508.352 143.592 504.187C144.601 500.913 146.573 499.464 149.178 497.284C150.917 495.795 152.645 494.294 154.366 492.784C155.226 492.052 156.085 491.32 156.971 490.565C161.174 486.221 162.157 480.937 162.192 474.997C162.122 472.152 162.001 469.314 161.866 466.472C161.82 465.41 161.773 464.347 161.725 463.253C161.055 448.588 160.112 433.935 159.178 419.284C159.049 420.622 159.049 420.622 158.917 421.987C158.706 423.743 158.706 423.743 158.491 425.534C158.363 426.694 158.236 427.855 158.104 429.05C156.966 433.026 155.7 434.196 152.178 436.284C149.378 436.773 147.049 436.479 144.178 436.284C144.202 437.375 144.225 438.465 144.249 439.589C144.57 461.347 143.602 487.128 128.178 504.097C115.548 515.851 100.517 517.876 84.0378 517.601C72.3219 517.148 61.5284 513.781 51.1784 508.284C50.3276 507.843 49.4768 507.402 48.6003 506.948C39.7153 502.015 31.5382 495.155 28.1784 485.284C24.0175 470.483 25.0442 454.534 25.1784 439.284C24.4359 439.222 23.6934 439.16 22.9284 439.097C19.2539 438.011 18.3051 436.43 16.1784 433.284C13.6088 424.44 13.8699 414.854 13.9284 405.722C13.9206 404.478 13.9129 403.235 13.9049 401.954C13.9075 400.762 13.9101 399.571 13.9128 398.343C13.915 397.273 13.9173 396.204 13.9196 395.102C14.1784 392.284 14.1784 392.284 16.1784 388.284C19.1484 387.954 22.1184 387.624 25.1784 387.284C25.1784 379.694 25.1784 372.104 25.1784 364.284C22.5384 363.624 19.8984 362.964 17.1784 362.284C8.91469 357.822 4.8018 351.68 1.92447 342.917C-1.58581 330.53 -0.284857 317.828 5.7526 306.483C8.51995 302.215 12.3858 299.081 17.1784 297.284C19.1695 296.901 21.1694 296.558 23.1784 296.284C22.4153 295.913 21.6521 295.542 20.8659 295.159C17.4924 292.806 16.7034 291.103 15.1784 287.284C14.662 284.247 14.526 281.236 14.4284 278.159C14.3938 277.296 14.3593 276.433 14.3236 275.544C14.1167 269.094 14.2095 262.668 14.4909 256.222C14.5254 255.371 14.5598 254.521 14.5954 253.645C14.812 249.765 14.9832 247.577 17.1784 244.284C20.3034 244.097 20.3034 244.097 23.1784 244.284C23.1522 243.004 23.126 241.723 23.099 240.404C23.0079 235.614 22.9509 230.825 22.9037 226.035C22.8787 223.969 22.8447 221.903 22.8012 219.837C22.7399 216.853 22.712 213.87 22.6901 210.886C22.6643 209.975 22.6385 209.064 22.6119 208.126C22.6081 199.174 26.2724 191.497 32.3385 184.937C48.5083 170.415 71.211 167.319 92.1398 168.157C107.327 169.106 121.68 173.184 132.28 184.769C137.802 192.086 140.953 200.459 143.178 209.284C143.854 208.73 144.529 208.176 145.225 207.605C146.563 206.518 146.563 206.518 147.928 205.409C149.251 204.33 149.251 204.33 150.6 203.23C152.76 201.6 154.718 200.376 157.178 199.284C156.428 198.592 155.678 197.9 154.905 197.187C136.351 179.639 124.822 156.504 123.975 130.69C123.54 103.554 131.343 80.0299 149.178 59.2842C149.691 58.65 150.204 58.0158 150.733 57.3623C188.176 11.6212 262.697 6.59247 308.272 41.9483ZM167.178 53.2842C166.499 53.8205 165.82 54.3567 165.12 54.9092C146.556 70.1241 133.787 94.489 131.178 118.284C129.943 141.642 135.306 164.875 151.036 182.931C155.935 188.349 161.13 192.867 167.061 197.151C169.687 199.797 169.918 201.629 170.178 205.284C169.622 205.371 169.065 205.457 168.491 205.546C162.389 206.669 158.173 208.677 153.178 212.284C151.923 212.961 151.923 212.961 150.643 213.651C147.515 215.672 145.996 216.993 144.178 220.284C143.342 227.189 144.26 234.234 145.154 241.1C145.162 241.162 145.17 241.223 145.178 241.284C146.101 241.396 146.101 241.396 147.042 241.511C147.85 241.642 148.658 241.774 149.491 241.909C150.291 242.025 151.092 242.141 151.917 242.261C154.178 243.284 154.178 243.284 155.949 245.852C157.378 249.842 157.594 253.389 157.542 257.569C157.542 258.348 157.543 259.127 157.543 259.929C157.541 261.567 157.531 263.205 157.515 264.843C157.491 267.343 157.494 269.841 157.501 272.341C157.495 273.938 157.488 275.535 157.479 277.132C157.481 278.246 157.481 278.246 157.482 279.383C157.411 284.628 156.962 288.501 153.178 292.284C151.198 292.944 149.218 293.604 147.178 294.284C147.178 323.984 147.178 353.684 147.178 384.284C151.138 385.769 151.138 385.769 155.178 387.284C156.678 389.972 156.678 389.972 157.178 392.284C157.508 392.284 157.838 392.284 158.178 392.284C158.184 391.619 158.19 390.953 158.196 390.267C158.625 343.482 159.773 296.808 165.178 250.284C166.828 250.614 168.478 250.944 170.178 251.284C170.373 259.708 169.849 267.931 169.01 276.31C163.222 335.087 162.502 395.492 168.56 454.272C169.152 460.217 169.392 466.122 169.428 472.097C169.442 473.29 169.442 473.29 169.456 474.507C169.41 483.151 168.099 491.644 162.178 498.284C159.368 500.513 156.501 502.549 153.507 504.522C150.912 506.141 150.912 506.141 150.178 509.284C153.525 513.616 158.604 514.048 163.741 514.819C175.958 516.268 190.116 517.374 201.178 511.284C202.272 510.686 203.365 510.088 204.491 509.472C209.808 505.144 213.501 501.055 215.178 494.284C215.435 490.988 215.414 487.714 215.366 484.409C215.359 483.469 215.353 482.53 215.346 481.561C215.289 476.305 215.076 471.09 214.678 465.847C210.056 400.055 210.056 400.055 223.178 376.284C226.156 373.365 228.371 372.853 232.491 372.847C237.649 373.018 241.333 373.741 245.178 377.284C253.65 386.913 253.892 401.299 254.803 413.472C254.866 414.262 254.929 415.053 254.994 415.868C255.958 428.266 256.321 440.658 256.483 453.089C256.493 453.818 256.502 454.547 256.512 455.298C256.608 462.686 256.68 470.073 256.704 477.461C256.715 480.26 256.736 483.059 256.76 485.858C256.772 487.802 256.767 489.746 256.763 491.691C256.773 492.867 256.783 494.043 256.794 495.255C256.796 496.279 256.798 497.303 256.8 498.357C257.384 502.873 258.873 506.26 262.476 509.086C265.502 510.428 268.135 510.992 271.413 511.452C273.222 511.709 273.222 511.709 275.068 511.972C276.342 512.137 277.616 512.302 278.928 512.472C280.23 512.643 281.531 512.815 282.872 512.991C301.785 516.087 301.785 516.087 319.178 510.284C321.86 507.672 322.995 505.801 324.241 502.284C324.438 499.185 324.438 499.185 322.491 496.659C319.721 494.201 316.688 493.398 313.178 492.347C307.622 490.659 305.181 489.253 302.178 484.284C298.734 473.942 301.6 460.665 302.774 450.027C307.736 404.611 310.337 357.799 305.178 312.284C304.977 310.477 304.977 310.477 304.772 308.633C302.904 292.377 300.27 276.407 296.574 260.465C296.178 258.284 296.178 258.284 296.178 254.284C302.671 253.743 307.921 254.159 313.178 258.284C322.656 269.006 323.917 282.572 323.178 296.284C321.907 305.183 318.665 315.798 312.178 322.284C312.046 325.273 312.039 328.149 312.139 331.132C312.168 332.018 312.196 332.904 312.225 333.816C312.291 335.697 312.364 337.578 312.443 339.458C312.552 342.311 312.61 345.162 312.667 348.017C312.818 359.283 312.818 359.283 317.967 368.968C321.624 372.369 325.27 374.089 330.241 374.597C333.55 374.245 334.845 373.617 337.178 371.284C338.115 368.474 338.235 367.086 338.116 364.222C338.044 349.427 345.318 339.053 353.863 327.561C363.09 314.939 365.507 301.698 364.178 286.284C359.307 255.73 336.272 232.981 314.178 213.284C313.634 212.791 313.089 212.297 312.527 211.788C309.768 209.366 308.556 208.319 304.803 207.972C303.504 208.126 303.504 208.126 302.178 208.284C301.848 205.974 301.518 203.664 301.178 201.284C301.733 201.034 302.287 200.784 302.858 200.526C321.94 190.311 332.696 170.027 339.178 150.284C339.521 149.284 339.864 148.284 340.217 147.253C346.666 124.833 342.103 99.5055 331.178 79.2842C317.103 55.236 295.389 38.1583 268.815 30.2881C232.565 20.853 196.066 30.1403 167.178 53.2842ZM42.1784 188.284C40.9409 189.12 40.9409 189.12 39.6784 189.972C35.0543 194.249 30.3968 200.211 30.049 206.698C30.0479 207.64 30.0467 208.583 30.0456 209.554C30.0436 210.602 30.0417 211.65 30.0397 212.73C30.0442 213.841 30.0487 214.952 30.0534 216.097C30.0553 217.221 30.0572 218.346 30.0592 219.505C30.1006 227.471 30.3838 235.353 31.1784 243.284C32.2522 243.261 33.326 243.238 34.4323 243.214C35.8685 243.195 37.3047 243.177 38.7409 243.159C39.4454 243.142 40.1498 243.126 40.8756 243.108C45.6196 243.065 49.7063 243.503 54.1784 245.284C55.4831 247.054 55.4831 247.054 56.0534 249.097C56.2571 249.763 56.4607 250.43 56.6706 251.116C57.228 253.496 57.7036 255.887 58.1784 258.284C63.2789 258.334 68.3792 258.37 73.4799 258.394C75.2068 258.404 76.9337 258.418 78.6606 258.435C90.3306 258.551 101.623 257.945 113.178 256.284C113.399 255.373 113.619 254.463 113.847 253.524C116.053 244.409 116.053 244.409 117.178 243.284C119.766 243.072 122.336 242.907 124.928 242.784C129.417 242.566 133.789 242.321 138.178 241.284C138.695 225.053 138.797 203.986 127.792 190.987C127.259 190.425 126.727 189.863 126.178 189.284C125.677 188.743 125.175 188.201 124.659 187.644C113.946 177.322 98.3195 175.922 84.1774 175.981C69.3423 176.317 54.2543 179.154 42.1784 188.284ZM132.178 250.284C132.162 252.603 132.216 254.923 132.299 257.241C132.323 257.941 132.347 258.64 132.371 259.361C132.448 261.606 132.532 263.851 132.616 266.097C132.695 268.331 132.773 270.566 132.85 272.801C132.921 274.837 132.996 276.873 133.071 278.908C133.149 281.366 133.178 283.825 133.178 286.284C139.276 286.505 144.395 286.296 150.178 284.284C151.305 280.692 151.308 277.301 151.311 273.565C151.311 273.499 151.311 273.432 151.311 273.366C151.312 272.708 151.313 272.051 151.314 271.373C151.315 269.988 151.313 268.604 151.309 267.22C151.303 265.094 151.309 262.967 151.315 260.841C151.314 259.495 151.313 258.149 151.311 256.804C151.31 255.578 151.309 254.351 151.308 253.088C151.498 250.38 151.498 250.38 150.178 249.284C147.335 249.184 144.521 249.145 141.678 249.159C140.88 249.155 140.083 249.151 139.26 249.147C135.41 248.775 135.41 248.775 132.178 250.284ZM121.178 250.284C120.181 255.253 120.023 259.992 120.053 265.034C120.057 265.828 120.06 266.622 120.064 267.44C119.439 277.629 119.439 277.629 123.178 286.284C124.168 286.284 125.158 286.284 126.178 286.284C126.208 281.763 126.225 277.243 126.241 272.722C126.249 271.445 126.258 270.168 126.266 268.853C126.269 267.612 126.273 266.371 126.276 265.093C126.281 263.956 126.287 262.82 126.292 261.649C126.173 258.132 125.736 254.756 125.178 251.284C123.858 250.954 122.538 250.624 121.178 250.284ZM44.1784 251.284C43.7835 263.658 44.7673 275.142 47.1784 287.284C49.1537 286.936 49.1537 286.936 51.1784 286.284C52.9243 282.792 52.3687 278.819 52.3659 274.972C52.3665 274.075 52.3672 273.178 52.3678 272.254C52.3114 265.097 51.6139 258.308 50.1784 251.284C47.1784 249.951 47.1784 249.951 44.1784 251.284ZM29.1159 251.722C28.0318 251.803 26.9477 251.884 25.8307 251.968C23.2591 251.997 23.2591 251.997 22.1784 253.284C21.9595 257.647 21.9926 262.016 21.9931 266.385C21.9909 268.577 21.9728 270.769 21.9538 272.962C21.9508 274.357 21.9488 275.752 21.9479 277.147C21.9438 278.419 21.9397 279.69 21.9355 281C21.9879 284.537 21.9879 284.537 24.1784 288.284C29.4584 288.284 34.7384 288.284 40.1784 288.284C40.0353 286.752 39.8922 285.219 39.7448 283.64C39.1379 276.963 38.6226 270.281 38.1159 263.597C38.025 262.406 37.9341 261.216 37.8405 259.989C37.6191 257.088 37.3984 254.186 37.1784 251.284C34.4764 251.284 31.8097 251.513 29.1159 251.722ZM304.178 261.284C304.818 267.382 305.616 273.423 306.589 279.476C306.786 280.722 306.786 280.722 306.988 281.993C307.404 284.611 307.822 287.229 308.241 289.847C308.526 291.636 308.81 293.426 309.094 295.216C309.787 299.572 310.482 303.928 311.178 308.284C316.897 300.944 318.306 291.406 317.178 282.284C315.684 275.898 313.976 269.706 310.178 264.284C307.112 262.458 307.112 262.458 304.178 261.284ZM104.163 264.749C95.2668 265.516 86.3511 265.642 77.4284 265.847C75.6523 265.89 73.8763 265.934 72.1003 265.978C67.793 266.083 63.4858 266.185 59.1784 266.284C59.1784 268.264 59.1784 270.244 59.1784 272.284C86.194 272.454 86.194 272.454 113.178 271.284C113.178 268.974 113.178 266.664 113.178 264.284C110.089 264.284 107.224 264.447 104.163 264.749ZM60.1784 280.284C60.0082 281.127 59.8381 281.97 59.6628 282.839C59.4204 283.935 59.1781 285.03 58.9284 286.159C58.6963 287.25 58.4643 288.34 58.2253 289.464C57.1784 292.284 57.1784 292.284 55.3942 293.627C52.8885 294.37 50.5815 294.705 47.9753 294.917C46.5057 295.043 46.5057 295.043 45.0065 295.171C43.4828 295.289 43.4828 295.289 41.9284 295.409C40.3815 295.539 40.3815 295.539 38.8034 295.671C36.2623 295.883 33.7204 296.084 31.1784 296.284C31.1784 299.914 31.1784 303.544 31.1784 307.284C32.4984 307.346 33.8184 307.408 35.1784 307.472C41.9486 308.238 46.2546 311.36 50.9909 316.097C56.3253 323.87 57.1612 331.002 56.1784 340.284C54.2303 348.516 51.0614 354.195 44.4284 359.472C41.1784 361.284 41.1784 361.284 32.1784 364.284C32.1784 371.874 32.1784 379.464 32.1784 387.284C38.6257 387.166 38.6257 387.166 45.0722 387.014C45.8768 387.006 46.6814 386.999 47.5104 386.991C48.3326 386.976 49.1548 386.96 50.0019 386.944C52.7048 387.367 53.5312 388.14 55.1784 390.284C56.1276 392.983 56.1276 392.983 56.8659 395.972C57.1172 396.966 57.3686 397.959 57.6276 398.983C57.8094 399.743 57.9911 400.502 58.1784 401.284C76.4872 403.191 95.0101 402.036 113.178 399.284C113.288 398.597 113.398 397.91 113.51 397.202C113.669 396.301 113.828 395.4 113.991 394.472C114.142 393.578 114.293 392.685 114.448 391.765C115.267 388.983 115.936 388.07 118.178 386.284C120.215 385.868 120.215 385.868 122.522 385.808C123.356 385.777 124.19 385.746 125.049 385.714C125.917 385.696 126.785 385.678 127.678 385.659C129.397 385.608 131.116 385.554 132.835 385.495C133.596 385.478 134.357 385.46 135.141 385.442C137.381 385.351 137.381 385.351 140.178 384.284C140.178 354.584 140.178 324.884 140.178 294.284C133.908 293.954 127.638 293.624 121.178 293.284C116.533 290.962 116.533 290.962 115.178 287.284C114.477 284.626 113.834 281.955 113.178 279.284C95.504 279.055 77.8415 279.73 60.1784 280.284ZM14.8581 308.589C8.59913 314.906 7.93145 324.114 7.9274 332.493C8.036 339.28 9.40205 344.324 12.8659 350.097C17.1123 354.114 21.6609 356.471 27.5534 356.847C33.9049 356.507 39.5901 353.883 44.0729 349.382C48.4009 343.896 50.6999 338.561 50.4948 331.437C49.6962 326.004 47.51 321.552 43.5534 317.784C38.7941 314.778 34.612 314.907 29.0495 314.565C26.1784 314.284 26.1784 314.284 25.1784 313.284C24.7238 310.63 24.4759 307.962 24.1784 305.284C19.6496 305.284 18.3302 305.981 14.8581 308.589ZM131.178 392.284C131.209 392.908 131.239 393.531 131.27 394.173C131.831 405.883 132.361 417.558 132.178 429.284C138.582 429.52 144.025 429.108 150.178 427.284C151.836 421.921 151.364 416.259 151.364 410.702C151.366 408.659 151.384 406.616 151.403 404.573C151.405 403.289 151.407 402.005 151.409 400.683C151.415 398.914 151.415 398.914 151.421 397.11C151.472 394.149 151.472 394.149 149.178 392.284C147.242 392.008 147.242 392.008 145.046 392.089C144.24 392.095 143.434 392.102 142.604 392.108C141.342 392.134 141.342 392.134 140.053 392.159C139.204 392.168 138.354 392.177 137.479 392.187C135.379 392.21 133.279 392.246 131.178 392.284ZM121.178 393.284C120.211 396.188 120.05 398.053 120.046 401.073C120.044 402.016 120.043 402.958 120.042 403.929C120.046 404.912 120.049 405.896 120.053 406.909C120.05 407.87 120.046 408.83 120.042 409.819C119.718 419.827 119.718 419.827 122.178 429.284C122.838 429.284 123.498 429.284 124.178 429.284C125.279 425.983 125.308 423.517 125.311 420.042C125.312 418.811 125.314 417.58 125.315 416.312C125.311 415.024 125.307 413.736 125.303 412.409C125.307 411.129 125.311 409.849 125.315 408.53C125.313 406.68 125.313 406.68 125.311 404.792C125.309 403.1 125.309 403.1 125.308 401.375C125.19 398.559 124.822 396.022 124.178 393.284C123.188 393.284 122.198 393.284 121.178 393.284ZM45.1784 394.284C44.4495 411.945 44.4495 411.945 47.1784 429.284C47.8384 429.614 48.4984 429.944 49.1784 430.284C50.1684 429.624 51.1584 428.964 52.1784 428.284C52.6265 426.276 52.6265 426.276 52.5417 423.952C52.5423 423.077 52.5429 422.201 52.5436 421.299C52.5262 420.366 52.5088 419.433 52.4909 418.472C52.4825 417.528 52.4741 416.584 52.4655 415.612C52.3416 408.356 51.6569 401.4 50.1784 394.284C48.5284 394.284 46.8784 394.284 45.1784 394.284ZM27.4284 394.722C25.982 394.844 25.982 394.844 24.5065 394.968C22.2217 395.039 22.2217 395.039 21.1784 396.284C20.9218 399.526 20.9884 402.784 20.9909 406.034C20.991 406.983 20.991 407.932 20.9911 408.91C20.4718 420.832 20.4718 420.832 24.1784 431.284C26.6708 431.411 29.1231 431.469 31.6159 431.472C32.6571 431.49 32.6571 431.49 33.7194 431.509C35.5406 431.514 37.3612 431.406 39.1784 431.284C39.8384 430.624 40.4984 429.964 41.1784 429.284C40.9926 427.025 40.9926 427.025 40.3424 424.452C39.0615 418.156 38.7418 412.007 38.5534 405.597C38.5147 404.502 38.476 403.407 38.4362 402.278C38.3431 399.614 38.2573 396.949 38.1784 394.284C34.5654 394.266 31.0289 394.405 27.4284 394.722ZM103.069 407.749C94.3701 408.505 85.6539 408.641 76.9284 408.847C75.2005 408.89 73.4726 408.934 71.7448 408.978C67.5561 409.083 63.3673 409.185 59.1784 409.284C59.1357 410.95 59.1377 412.618 59.1784 414.284C60.8988 416.005 63.1759 415.414 65.5221 415.417C67.2222 415.42 67.2222 415.42 68.9567 415.423C70.1848 415.418 71.413 415.414 72.6784 415.409C73.9246 415.407 75.1708 415.405 76.4547 415.403C88.7097 415.348 100.94 414.891 113.178 414.284C113.178 411.974 113.178 409.664 113.178 407.284C109.768 407.239 106.461 407.412 103.069 407.749ZM60.1784 423.284C60.014 424.315 60.014 424.315 59.8463 425.366C59.6085 426.718 59.6085 426.718 59.3659 428.097C59.2151 428.99 59.0642 429.883 58.9088 430.804C58.1137 433.504 57.3777 434.574 55.1784 436.284C52.901 436.98 52.901 436.98 50.2409 437.409C48.9589 437.63 48.9589 437.63 47.651 437.855C42.7415 438.462 37.8157 438.845 32.8848 439.229C32.6493 439.248 32.4139 439.266 32.1784 439.284C32.2229 444.353 32.2932 449.42 32.3859 454.488C32.4139 456.207 32.4352 457.927 32.4494 459.646C32.5577 472.059 32.804 483.896 41.9557 493.378C56.1136 505.52 74.818 510.971 93.3034 510.159C106.814 508.841 116.9 503.959 125.581 493.538C136.602 477.99 137.842 455.75 137.178 437.284C136.154 437.247 135.129 437.209 134.073 437.171C132.712 437.105 131.352 437.039 129.991 436.972C128.981 436.938 128.981 436.938 127.95 436.903C123.571 436.668 120.694 435.924 117.178 433.284C114.946 429.995 114.25 426.077 113.178 422.284C95.4829 422.148 77.8553 422.456 60.1784 423.284Z" fill="black"/>
<path d="M167.178 53.2842L165.12 54.9092C146.556 70.1241 133.787 94.489 131.178 118.284C129.943 141.642 135.306 164.875 151.036 182.931C155.935 188.349 161.13 192.867 167.061 197.151C169.687 199.797 169.918 201.629 170.178 205.284L168.491 205.546C162.389 206.669 158.173 208.677 153.178 212.284L150.643 213.651C147.515 215.672 145.996 216.993 144.178 220.284C143.342 227.189 144.26 234.234 145.154 241.1L145.178 241.284L147.042 241.511L149.491 241.909L151.917 242.261C154.178 243.284 154.178 243.284 155.949 245.852C157.378 249.842 157.594 253.389 157.542 257.569L157.543 259.929C157.541 261.567 157.531 263.205 157.515 264.843C157.491 267.343 157.494 269.841 157.501 272.341C157.495 273.938 157.488 275.535 157.479 277.132L157.482 279.383C157.411 284.628 156.962 288.501 153.178 292.284L147.178 294.284V384.284L155.178 387.284C156.678 389.972 156.678 389.972 157.178 392.284H158.178L158.196 390.267C158.625 343.482 159.773 296.808 165.178 250.284L170.178 251.284C170.373 259.708 169.849 267.931 169.01 276.31C163.222 335.087 162.502 395.492 168.56 454.272C169.152 460.217 169.392 466.122 169.428 472.097L169.456 474.507C169.41 483.151 168.099 491.644 162.178 498.284C159.368 500.513 156.501 502.549 153.507 504.522C150.912 506.141 150.912 506.141 150.178 509.284C153.525 513.616 158.604 514.048 163.741 514.819C175.958 516.268 190.116 517.374 201.178 511.284L204.491 509.472C209.808 505.144 213.501 501.055 215.178 494.284C215.435 490.988 215.414 487.714 215.366 484.409L215.346 481.561C215.289 476.305 215.076 471.09 214.678 465.847C210.056 400.055 210.056 400.055 223.178 376.284C226.156 373.365 228.371 372.853 232.491 372.847C237.649 373.018 241.333 373.741 245.178 377.284C253.65 386.913 253.892 401.299 254.803 413.472L254.994 415.868C255.958 428.266 256.321 440.658 256.483 453.089L256.512 455.298C256.608 462.686 256.68 470.073 256.704 477.461C256.715 480.26 256.736 483.059 256.76 485.858C256.772 487.802 256.767 489.746 256.763 491.691L256.794 495.255L256.8 498.357C257.384 502.873 258.873 506.26 262.476 509.086C265.502 510.428 268.135 510.992 271.413 511.452L275.068 511.972L278.928 512.472L282.872 512.991C301.785 516.087 301.785 516.087 319.178 510.284C321.86 507.672 322.995 505.801 324.241 502.284C324.438 499.185 324.438 499.185 322.491 496.659C319.721 494.201 316.688 493.398 313.178 492.347C307.622 490.659 305.181 489.253 302.178 484.284C298.734 473.942 301.6 460.665 302.774 450.027C307.736 404.611 310.337 357.799 305.178 312.284L304.772 308.633C302.904 292.377 300.27 276.407 296.574 260.465C296.178 258.284 296.178 258.284 296.178 254.284C302.671 253.743 307.921 254.159 313.178 258.284C322.656 269.006 323.917 282.572 323.178 296.284C321.907 305.183 318.665 315.798 312.178 322.284C312.046 325.273 312.039 328.149 312.139 331.132L312.225 333.816C312.291 335.697 312.364 337.578 312.443 339.458C312.552 342.311 312.61 345.162 312.667 348.017C312.818 359.283 312.818 359.283 317.967 368.968C321.624 372.369 325.27 374.089 330.241 374.597C333.55 374.245 334.845 373.617 337.178 371.284C338.115 368.474 338.235 367.086 338.116 364.222C338.044 349.427 345.318 339.053 353.863 327.561C363.09 314.939 365.507 301.698 364.178 286.284C359.307 255.73 336.272 232.981 314.178 213.284L312.527 211.788C309.768 209.366 308.556 208.319 304.803 207.972L302.178 208.284L301.178 201.284L302.858 200.526C321.94 190.311 332.696 170.027 339.178 150.284L340.217 147.253C346.666 124.833 342.103 99.5055 331.178 79.2842C317.103 55.236 295.389 38.1583 268.815 30.2881C232.565 20.853 196.066 30.1403 167.178 53.2842Z" fill="#FEE129"/>
<path d="M14.8581 308.589C8.59913 314.906 7.93145 324.114 7.9274 332.493C8.036 339.28 9.40205 344.324 12.8659 350.097C17.1123 354.114 21.6609 356.471 27.5534 356.847C33.9049 356.507 39.5901 353.883 44.0729 349.382C48.4009 343.896 50.6999 338.561 50.4948 331.437C49.6962 326.004 47.51 321.552 43.5534 317.784C38.7941 314.778 34.612 314.907 29.0495 314.565C26.1784 314.284 26.1784 314.284 25.1784 313.284C24.7238 310.63 24.4759 307.962 24.1784 305.284C19.6496 305.284 18.3302 305.981 14.8581 308.589Z" fill="#FEE129"/>
<path d="M60.1784 280.284L59.6628 282.839L58.9284 286.159L58.2253 289.464C57.1784 292.284 57.1784 292.284 55.3942 293.627C52.8885 294.37 50.5815 294.705 47.9753 294.917L45.0065 295.171L41.9284 295.409L38.8034 295.671C36.2623 295.883 33.7204 296.084 31.1784 296.284V307.284L35.1784 307.472C41.9486 308.238 46.2546 311.36 50.9909 316.097C56.3253 323.87 57.1612 331.002 56.1784 340.284C54.2303 348.516 51.0614 354.195 44.4284 359.472C41.1784 361.284 41.1784 361.284 32.1784 364.284V387.284C38.6257 387.166 38.6257 387.166 45.0722 387.014L47.5104 386.991L50.0019 386.944C52.7048 387.367 53.5312 388.14 55.1784 390.284C56.1276 392.983 56.1276 392.983 56.8659 395.972L57.6276 398.983L58.1784 401.284C76.4872 403.191 95.0101 402.036 113.178 399.284L113.51 397.202L113.991 394.472L114.448 391.765C115.267 388.983 115.936 388.07 118.178 386.284C120.215 385.868 120.215 385.868 122.522 385.808L125.049 385.714L127.678 385.659C129.397 385.608 131.116 385.554 132.835 385.495L135.141 385.442C137.381 385.351 137.381 385.351 140.178 384.284V294.284L121.178 293.284C116.533 290.962 116.533 290.962 115.178 287.284C114.477 284.626 113.834 281.955 113.178 279.284C95.504 279.055 77.8415 279.73 60.1784 280.284Z" fill="#09818C"/>
<path d="M60.1784 423.284L59.8463 425.366L59.3659 428.097L58.9088 430.804C58.1137 433.504 57.3777 434.574 55.1784 436.284C52.901 436.98 52.901 436.98 50.2409 437.409L47.651 437.855C42.7415 438.462 37.8157 438.845 32.8848 439.229L32.1784 439.284C32.2229 444.353 32.2932 449.42 32.3859 454.488C32.4139 456.207 32.4352 457.927 32.4494 459.646C32.5577 472.059 32.804 483.896 41.9557 493.378C56.1136 505.52 74.818 510.971 93.3034 510.159C106.814 508.841 116.9 503.959 125.581 493.538C136.602 477.99 137.842 455.75 137.178 437.284L134.073 437.171C132.712 437.105 131.352 437.039 129.991 436.972L127.95 436.903C123.571 436.668 120.694 435.924 117.178 433.284C114.946 429.995 114.25 426.077 113.178 422.284C95.4829 422.148 77.8553 422.456 60.1784 423.284Z" fill="#09818C"/>
<path d="M42.1784 188.284L39.6784 189.972C35.0543 194.249 30.3968 200.211 30.049 206.698L30.0456 209.554L30.0397 212.73L30.0534 216.097L30.0592 219.505C30.1006 227.471 30.3838 235.353 31.1784 243.284L34.4323 243.214C35.8685 243.195 37.3047 243.177 38.7409 243.159L40.8756 243.108C45.6196 243.065 49.7063 243.503 54.1784 245.284C55.4831 247.054 55.4831 247.054 56.0534 249.097L56.6706 251.116C57.228 253.496 57.7036 255.887 58.1784 258.284C63.2789 258.334 68.3792 258.37 73.4799 258.394C75.2068 258.404 76.9337 258.418 78.6606 258.435C90.3306 258.551 101.623 257.945 113.178 256.284L113.847 253.524C116.053 244.409 116.053 244.409 117.178 243.284C119.766 243.072 122.336 242.907 124.928 242.784C129.417 242.566 133.789 242.321 138.178 241.284C138.695 225.053 138.797 203.986 127.792 190.987L126.178 189.284L124.659 187.644C113.946 177.322 98.3195 175.922 84.1774 175.981C69.3423 176.317 54.2543 179.154 42.1784 188.284Z" fill="#09818C"/>
<path d="M29.1159 251.722L25.8307 251.968C23.2591 251.997 23.2591 251.997 22.1784 253.284C21.9595 257.647 21.9926 262.016 21.9931 266.385C21.9909 268.577 21.9728 270.769 21.9538 272.962C21.9508 274.357 21.9488 275.752 21.9479 277.147L21.9355 281C21.9879 284.537 21.9879 284.537 24.1784 288.284H40.1784L39.7448 283.64C39.1379 276.963 38.6226 270.281 38.1159 263.597L37.8405 259.989C37.6191 257.088 37.3984 254.186 37.1784 251.284C34.4764 251.284 31.8097 251.513 29.1159 251.722Z" fill="#C7C7C7"/>
<path d="M44.1784 251.284C43.7835 263.658 44.7673 275.142 47.1784 287.284C49.1537 286.936 49.1537 286.936 51.1784 286.284C52.9243 282.792 52.3687 278.819 52.3659 274.972L52.3678 272.254C52.3114 265.097 51.6139 258.308 50.1784 251.284C47.1784 249.951 47.1784 249.951 44.1784 251.284Z" fill="#C7C7C7"/>
<path d="M132.178 250.284C132.162 252.603 132.216 254.923 132.299 257.241L132.371 259.361C132.448 261.606 132.532 263.851 132.616 266.097C132.695 268.331 132.773 270.566 132.85 272.801C132.921 274.837 132.996 276.873 133.071 278.908C133.149 281.366 133.178 283.825 133.178 286.284C139.276 286.505 144.395 286.296 150.178 284.284C151.305 280.692 151.308 277.301 151.311 273.565L151.311 273.366L151.314 271.373C151.315 269.988 151.313 268.604 151.309 267.22C151.303 265.094 151.309 262.967 151.315 260.841C151.314 259.495 151.313 258.149 151.311 256.804L151.308 253.088C151.498 250.38 151.498 250.38 150.178 249.284C147.335 249.184 144.521 249.145 141.678 249.159L139.26 249.147C135.41 248.775 135.41 248.775 132.178 250.284Z" fill="#C7C7C7"/>
<path d="M121.178 250.284C120.181 255.253 120.023 259.992 120.053 265.034L120.064 267.44C119.439 277.629 119.439 277.629 123.178 286.284H126.178C126.208 281.763 126.225 277.243 126.241 272.722L126.266 268.853L126.276 265.093L126.292 261.649C126.173 258.132 125.736 254.756 125.178 251.284L121.178 250.284Z" fill="#C7C7C7"/>
<path d="M27.4284 394.722L24.5065 394.968C22.2217 395.039 22.2217 395.039 21.1784 396.284C20.9218 399.526 20.9884 402.784 20.9909 406.034L20.9911 408.91C20.4718 420.832 20.4718 420.832 24.1784 431.284C26.6708 431.411 29.1231 431.469 31.6159 431.472L33.7194 431.509C35.5406 431.514 37.3612 431.406 39.1784 431.284L41.1784 429.284C40.9926 427.025 40.9926 427.025 40.3424 424.452C39.0615 418.156 38.7418 412.007 38.5534 405.597L38.4362 402.278C38.3431 399.614 38.2573 396.949 38.1784 394.284C34.5654 394.266 31.0289 394.405 27.4284 394.722Z" fill="#C7C7C7"/>
<path d="M45.1784 394.284C44.4495 411.945 44.4495 411.945 47.1784 429.284L49.1784 430.284L52.1784 428.284C52.6265 426.276 52.6265 426.276 52.5417 423.952L52.5436 421.299L52.4909 418.472L52.4655 415.612C52.3416 408.356 51.6569 401.4 50.1784 394.284H45.1784Z" fill="#C7C7C7"/>
<path d="M131.178 392.284L131.27 394.173C131.831 405.883 132.361 417.558 132.178 429.284C138.582 429.52 144.025 429.108 150.178 427.284C151.836 421.921 151.364 416.259 151.364 410.702C151.366 408.659 151.384 406.616 151.403 404.573L151.409 400.683L151.421 397.11C151.472 394.149 151.472 394.149 149.178 392.284C147.242 392.008 147.242 392.008 145.046 392.089L142.604 392.108L140.053 392.159L137.479 392.187C135.379 392.21 133.279 392.246 131.178 392.284Z" fill="#C7C7C7"/>
<path d="M121.178 393.284C120.211 396.188 120.05 398.053 120.046 401.073L120.042 403.929L120.053 406.909L120.042 409.819C119.718 419.827 119.718 419.827 122.178 429.284H124.178C125.279 425.983 125.308 423.517 125.311 420.042L125.315 416.312L125.303 412.409L125.315 408.53L125.311 404.792L125.308 401.375C125.19 398.559 124.822 396.022 124.178 393.284H121.178Z" fill="#C7C7C7"/>
<path d="M202.741 99.0967C205.178 100.284 205.178 100.284 206.178 102.284C206.55 106.962 206.647 111.657 206.803 116.347C206.855 117.665 206.907 118.983 206.96 120.341C207.003 121.592 207.047 122.843 207.092 124.132C207.133 125.287 207.174 126.442 207.216 127.632C207.178 130.284 207.178 130.284 206.178 131.284C203.803 131.597 203.803 131.597 201.178 131.284C195.213 124.887 196.896 113.46 197.178 105.284C197.553 101.597 197.553 101.597 198.178 99.2842C200.178 98.2842 200.178 98.2842 202.741 99.0967Z" fill="black"/>
<path d="M257.741 99.0967C260.178 100.284 260.178 100.284 261.178 102.284C261.549 106.795 261.647 111.323 261.803 115.847C261.855 117.117 261.907 118.387 261.96 119.696C262.004 120.902 262.047 122.108 262.092 123.351C262.133 124.464 262.174 125.577 262.216 126.724C262.178 129.284 262.178 129.284 261.178 130.284C258.803 130.659 258.803 130.659 256.178 130.284C253.298 126.543 252.817 123.765 252.885 119.108C252.895 117.951 252.905 116.795 252.915 115.603C252.94 114.404 252.965 113.206 252.991 111.972C253.004 110.754 253.018 109.537 253.032 108.282C253.067 105.282 253.117 102.284 253.178 99.2842C255.178 98.2842 255.178 98.2842 257.741 99.0967Z" fill="black"/>
<path d="M130.678 83.0403C189.074 70.6748 297.075 59.1787 340.178 97.2842C317.678 -39.3036 168.178 14.7841 152.678 25.8531C137.87 36.4281 130.845 67.0346 130.678 83.0403Z" fill="#F4599B"/>
<path d="M119.178 85.6344C122.742 84.7766 126.589 83.9063 130.678 83.0403M130.678 83.0403C189.074 70.6748 297.075 59.1787 340.178 97.2842C317.678 -39.3036 168.178 14.7841 152.678 25.8531C137.87 36.4281 130.845 67.0346 130.678 83.0403Z" stroke="black" stroke-width="11" stroke-linecap="round"/>
</g>
<defs>
<clipPath id="clip0_2287_6">
<rect width="372" height="525" fill="white"/>
</clipPath>
</defs>
</svg>
